<?xml version="1.0" encoding="utf-8"?>
<!-- Generator: Adobe Illustrator 27.5.0, SVG Export Plug-In . SVG Version: 6.00 Build 0)  -->
<svg version="1.1" xmlns="http://www.w3.org/2000/svg" xmlns:xlink="http://www.w3.org/1999/xlink" x="0px" y="0px"
	 viewBox="0 0 480 130.6" style="enable-background:new 0 0 480 130.6;" xml:space="preserve">
<style type="text/css">
	.st0{display:none;}
	.st1{fill:#FFFFFF;}
</style>
<g id="Layer_2_xA0_Image_00000127030090180368713910000001127681444108188838_" class="st0">
</g>
<g id="Layer_4">
	<g>
		<defs>
			<path id="SVGID_1_" d="M458.5,130.6h-437C9.6,130.6,0,120.9,0,109V21.5C0,9.6,9.6,0,21.5,0h437C470.4,0,480,9.6,480,21.5V109
				C480,120.9,470.4,130.6,458.5,130.6z"/>
		</defs>
		<clipPath id="SVGID_00000142862305719430822540000003760456609904244382_">
			<use xlink:href="#SVGID_1_"  style="overflow:visible;"/>
		</clipPath>
		<g style="clip-path:url(#SVGID_00000142862305719430822540000003760456609904244382_);">
			
				<image style="overflow:visible;" width="2000" height="544" id="Layer_2_xA0_Image" xlink:href="B66BDB6E.png"  transform="matrix(0.24 0 0 0.24 0 0)">
			</image>
		</g>
	</g>
</g>
<g id="Layer_3">
	<path class="st1" d="M443.1,115.5H34.9c-11.9,0-21.5-9.6-21.5-21.5V35.5C13.4,23.7,23,14,34.9,14h408.2c11.9,0,21.5,9.6,21.5,21.5
		V94C464.6,105.9,455,115.5,443.1,115.5z"/>
</g>
<g id="Layer_5">
	<g>
		<path d="M51.5,79.4V57.5l-0.4-4l0.4-2.4h7.2v28.3H51.5z"/>
		<path d="M64.4,79.4V57.5l-0.8-4l0.8-2.4h6.4L78.9,62l1.9,3.3h0.4V51.1h7.6v2.4l-0.4,4v21.9h-6.3L72,65.3h-0.4v2.4L72,79.4H64.4z"
			/>
		<path d="M100,79.4V57.5l-8,0.4v-6.8h23.4v6.8l-8.2-0.4V73l0.4,4l-0.4,2.4H100z"/>
		<path d="M119.4,79.4l-0.8-2.4l0.8-4V51.1h19.8l2,1.2l-2.6,5.6l-3.6-0.4h-8.4v4.4h10.8v6.2h-4.7l-6-0.4V73h12l4.8,3.8l-2.4,2.6
			H119.4z"/>
		<path d="M146.9,79.4V57.5l-0.8-4l0.8-2.4h12.8c1.9,0,3.7,0.3,5.3,0.9c1.6,0.6,2.8,1.6,3.7,3c0.9,1.4,1.4,3.4,1.4,5.9
			c0,2.3-0.4,4.1-1.2,5.5c-0.8,1.4-2,2.4-3.4,3.1l0.4,0.4l4,5l2.3,2v2.4h-9l-5.6-8.5h-3.3V73l0.4,4l-0.4,2.4H146.9z M154.1,64.6h3.9
			c1.4,0,2.5-0.3,3.3-0.8c0.8-0.5,1.2-1.5,1.2-2.9c0-1-0.2-1.7-0.6-2.2c-0.4-0.5-1-0.8-1.7-1c-0.7-0.2-1.5-0.2-2.5-0.2h-4.2
			L154.1,64.6z"/>
		<path d="M172.8,79.4l1.9-6.8v-5.1l3-1.2l5.2-15.2h10.4l6.4,17.9l3.1,5.7v4.7h-7.1l-2-6.4H182l-1.7,6.4H172.8z M184.7,66.9h6.8
			l-3-9.2h-0.8L184.7,66.9z"/>
		<path d="M218.3,79.8c-1.8,0-3.6-0.2-5.3-0.6c-1.7-0.4-3.2-1.2-4.6-2.2c-1.4-1.1-2.5-2.5-3.3-4.4c-0.8-1.9-1.2-4.3-1.2-7.3
			c0-2.7,0.4-5.1,1.2-6.9c0.8-1.9,1.9-3.4,3.2-4.5c1.3-1.1,2.8-1.9,4.4-2.4c1.6-0.5,3.2-0.7,4.8-0.7c1.4,0,2.7,0.1,4,0.3
			c1.3,0.2,2.2,0.5,2.8,0.7l4.4,3.6l-3.6,5.8l-6.8-3.5c-1.9,0-3.5,0.6-4.8,1.9c-1.3,1.2-2,3.2-2,5.7c0,1.8,0.3,3.3,1,4.5
			c0.7,1.1,1.6,2,2.7,2.5c1.1,0.5,2.5,0.8,3.9,0.8c1.5,0,2.9-0.1,4-0.4c1.1-0.3,2.1-0.6,2.9-0.9c0.8-0.4,1.6-0.7,2.4-1.1v6.7
			c-0.9,0.6-2.2,1.1-3.7,1.6C223.1,79.6,221,79.8,218.3,79.8z"/>
		<path d="M238.9,79.4V57.5l-8,0.4v-6.8h23.4v6.8l-8.2-0.4V73l0.4,4l-0.4,2.4H238.9z"/>
		<path d="M257.9,79.4V57.5l-0.4-4l0.4-2.4h7.2v28.3H257.9z"/>
		<path d="M276.8,79.4l-7.2-22l-1.2-4v-2.4h7.6l5.6,21h0.8l5.6-21h7.5v2.4l-1.2,4l-7.2,22H276.8z"/>
		<path d="M299.5,79.4l-0.8-2.4l0.8-4V51.1h19.8l2,1.2l-2.6,5.6l-3.6-0.4h-8.4v4.4h10.8v6.2h-4.7l-6-0.4V73h12l4.8,3.8l-2.4,2.6
			H299.5z"/>
		<path d="M336.6,79.4V57.5l-0.8-4l0.8-2.4h7.6l7.8,15.2h0.8l6.5-15.2h8l0.4,2.4l-0.4,3.8v22h-7.2l0.1-3.4V64.9h-0.4l-1.6,3.8
			l-3.6,6.7h-4.8l-5.5-10.6h-0.4v3.2l0.4,11.3H336.6z"/>
		<path d="M370.6,79.4l1.9-6.8v-5.1l3-1.2l5.2-15.2H391l6.4,17.9l3.1,5.7v4.7h-7.1l-2-6.4h-11.6l-1.7,6.4H370.6z M382.4,66.9h6.8
			l-3-9.2h-0.8L382.4,66.9z"/>
		<path d="M404.1,79.4V57.5l-0.8-4l0.8-2.4h12.8c1.9,0,3.7,0.3,5.3,0.9c1.6,0.6,2.8,1.6,3.7,3c0.9,1.4,1.4,3.4,1.4,5.9
			c0,2.5-0.5,4.5-1.5,5.9c-1,1.5-2.4,2.5-4.1,3.1c-1.7,0.6-3.7,0.9-6,0.9h-4.4V73l0.4,4l-0.4,2.4H404.1z M411.3,64.6h3.9
			c1.4,0,2.5-0.3,3.3-0.8s1.2-1.5,1.2-2.9c0-1-0.2-1.7-0.6-2.2c-0.4-0.5-1-0.8-1.7-1c-0.7-0.2-1.5-0.2-2.5-0.2h-4.2L411.3,64.6z"/>
	</g>
</g>
</svg>
