<?xml version="1.0" encoding="utf-8"?>
<!-- Generator: Adobe Illustrator 27.5.0, SVG Export Plug-In . SVG Version: 6.00 Build 0)  -->
<svg version="1.1" xmlns="http://www.w3.org/2000/svg" xmlns:xlink="http://www.w3.org/1999/xlink" x="0px" y="0px"
	 viewBox="0 0 480 130.3" style="enable-background:new 0 0 480 130.3;" xml:space="preserve">
<style type="text/css">
	.st0{display:none;}
	.st1{fill:none;}
	.st2{fill:#FFFFFF;}
</style>
<g id="Background_xA0_Image_00000027582411961329865820000001380976347303677093_" class="st0">
	
		<image style="display:inline;overflow:visible;" width="2000" height="543" id="Background_xA0_Image" xlink:href="73CD1350.png"  transform="matrix(0.24 0 0 0.24 0 0)">
	</image>
</g>
<g id="Layer_2_xA0_Image_00000120560287499222029060000000461730325270923394_">
	<rect x="0" class="st1" width="480" height="130.3"/>
</g>
<g id="Layer_3">
	<g>
		<defs>
			<path id="SVGID_1_" d="M458.5,130.3h-437C9.6,130.3,0,120.7,0,108.8V21.5C0,9.6,9.6,0,21.5,0h437C470.4,0,480,9.6,480,21.5v87.3
				C480,120.7,470.4,130.3,458.5,130.3z"/>
		</defs>
		<clipPath id="SVGID_00000093857229103742881560000010403725750840843197_">
			<use xlink:href="#SVGID_1_"  style="overflow:visible;"/>
		</clipPath>
		<g style="clip-path:url(#SVGID_00000093857229103742881560000010403725750840843197_);">
			
				<image style="overflow:visible;" width="2000" height="543" id="Layer_2_xA0_Image" xlink:href="73CD1351.png"  transform="matrix(0.24 0 0 0.24 0 0)">
			</image>
		</g>
	</g>
</g>
<g id="Layer_4">
	<path class="st2" d="M444.1,115.9H35.9c-11.9,0-21.5-9.6-21.5-21.5V35.9c0-11.9,9.6-21.5,21.5-21.5h408.2
		c11.9,0,21.5,9.6,21.5,21.5v58.5C465.6,106.3,456,115.9,444.1,115.9z"/>
</g>
<g id="Layer_5">
	<g>
		<path d="M104.2,85.4c-2.2,0-4.3-0.2-6.3-0.7c-2-0.5-3.9-1.4-5.5-2.7c-1.6-1.3-3-3.1-3.9-5.3c-1-2.3-1.4-5.2-1.4-8.7
			c0-3.3,0.5-6.1,1.4-8.3c1-2.2,2.2-4,3.8-5.4c1.6-1.3,3.4-2.3,5.3-2.9c1.9-0.6,3.8-0.9,5.7-0.9c1.6,0,3.2,0.1,4.8,0.4
			c1.6,0.3,2.7,0.5,3.4,0.9l5.3,4.4l-4.3,7l-8.2-4.2c-2.3,0-4.2,0.7-5.8,2.2c-1.6,1.5-2.4,3.8-2.4,6.9c0,2.2,0.4,4,1.2,5.4
			c0.8,1.4,1.9,2.4,3.2,3c1.4,0.6,2.9,1,4.7,1c1.9,0,3.4-0.2,4.8-0.5c1.3-0.3,2.5-0.7,3.5-1.1c1-0.4,1.9-0.9,2.8-1.3v8.1
			c-1.1,0.7-2.6,1.4-4.5,2C110,85.1,107.4,85.4,104.2,85.4z"/>
		<path d="M136.1,85.4c-2,0-4-0.2-6-0.7c-1.9-0.5-3.7-1.4-5.2-2.7c-1.6-1.3-2.8-3.1-3.7-5.3c-0.9-2.3-1.4-5.2-1.4-8.7
			c0-3.6,0.5-6.5,1.4-8.7c0.9-2.3,2.1-4,3.7-5.3c1.6-1.3,3.3-2.2,5.2-2.7c1.9-0.5,3.9-0.7,6-0.7c2,0,4,0.3,6,0.8
			c1.9,0.5,3.7,1.4,5.2,2.7c1.6,1.3,2.8,3.1,3.7,5.3c0.9,2.3,1.4,5.2,1.4,8.7c0,3.5-0.5,6.4-1.4,8.7c-0.9,2.3-2.1,4-3.7,5.3
			c-1.6,1.3-3.3,2.2-5.2,2.7C140.1,85.2,138.2,85.4,136.1,85.4z M136.1,77.3c2.4,0,4.2-0.7,5.4-2.1c1.2-1.4,1.8-3.8,1.8-7.2
			c0-3.4-0.6-5.8-1.8-7.2c-1.2-1.4-3-2.1-5.4-2.1c-2.3,0-4.1,0.7-5.3,2.2c-1.2,1.4-1.8,3.8-1.8,7.2c0,3.3,0.6,5.7,1.8,7.2
			C132,76.6,133.8,77.3,136.1,77.3z"/>
		<path d="M158.1,85V58.7l-1-4.8l1-2.9h7.7l9.7,13.1l2.3,4h0.5V51h9.1v2.9l-0.5,4.8V85h-7.5l-12-16.9h-0.5V71l0.5,14H158.1z"/>
		<path d="M200.9,85V58.7l-9.6,0.5V51h28.1v8.2l-9.8-0.5v18.6l0.5,4.8l-0.5,2.9H200.9z"/>
		<path d="M217.6,85l2.3-8.1v-6.1l3.6-1.4l6.2-18.3h12.4l7.7,21.5l3.7,6.8V85h-8.5l-2.4-7.7h-14l-2.1,7.7H217.6z M231.9,69.9h8.2
			l-3.6-11h-1L231.9,69.9z"/>
		<path d="M272.2,85.4c-2.2,0-4.3-0.2-6.3-0.7c-2-0.5-3.9-1.4-5.5-2.7c-1.6-1.3-3-3.1-3.9-5.3c-1-2.3-1.4-5.2-1.4-8.7
			c0-3.3,0.5-6.1,1.4-8.3c1-2.2,2.2-4,3.8-5.4c1.6-1.3,3.4-2.3,5.3-2.9c1.9-0.6,3.8-0.9,5.7-0.9c1.6,0,3.2,0.1,4.8,0.4
			c1.6,0.3,2.7,0.5,3.4,0.9l5.3,4.4l-4.3,7l-8.2-4.2c-2.3,0-4.2,0.7-5.8,2.2c-1.6,1.5-2.4,3.8-2.4,6.9c0,2.2,0.4,4,1.2,5.4
			c0.8,1.4,1.9,2.4,3.2,3c1.4,0.6,2.9,1,4.7,1c1.9,0,3.4-0.2,4.8-0.5c1.3-0.3,2.5-0.7,3.5-1.1c1-0.4,1.9-0.9,2.8-1.3v8.1
			c-1.1,0.7-2.6,1.4-4.5,2C278,85.1,275.4,85.4,272.2,85.4z"/>
		<path d="M297,85V58.7l-9.6,0.5V51h28.1v8.2l-9.8-0.5v18.6l0.5,4.8l-0.5,2.9H297z"/>
		<path d="M345.6,85.4c-4.9,0-8.6-1.1-11.1-3.4s-3.7-5.9-3.7-10.9V58.7l0-4.8l0-2.9h8.7v19.2c0,2.2,0.4,4.1,1.3,5.4
			c0.9,1.4,2.5,2.1,4.8,2.1c2.3,0,3.9-0.6,4.8-1.9c0.9-1.3,1.4-3.2,1.4-5.6V51h8.6v20.2c0,4.9-1.2,8.5-3.6,10.8
			C354.4,84.3,350.7,85.4,345.6,85.4z"/>
		<path d="M378.2,85.4c-1.8,0-3.4-0.2-5-0.5c-1.6-0.3-2.9-0.7-4.1-1.2c-1.2-0.5-2-0.9-2.5-1.3v-8.6c1.5,0.9,3.5,1.7,5.8,2.4
			c2.3,0.8,4.9,1.1,7.8,1.1c1.2,0,2-0.2,2.6-0.5c0.6-0.3,0.8-0.8,0.8-1.6c0-0.8-0.6-1.5-1.9-2.1c-1.3-0.6-3.3-1.3-6-2.1
			c-2.1-0.7-3.9-1.4-5.4-2.2c-1.5-0.8-2.6-1.8-3.4-3.1c-0.8-1.2-1.2-2.8-1.2-4.7c0-2,0.5-3.8,1.5-5.4s2.6-2.9,4.8-3.8
			c2.2-0.9,5-1.4,8.4-1.4c1,0,2.1,0,3.3,0.1c1.2,0.1,2.1,0.2,2.8,0.3l5.4,4l-1.9,5.9l-11.4-3.1c-1.3,0-2.3,0.3-2.9,0.8
			c-0.6,0.5-0.9,1.2-0.9,2c0,0.9,0.5,1.7,1.6,2.2c1.1,0.5,2.6,1.1,4.6,1.6c3.1,0.9,5.6,1.8,7.3,2.9c1.7,1.1,2.9,2.2,3.6,3.6
			c0.7,1.3,1.1,2.8,1.1,4.5c0,3.1-1.2,5.5-3.7,7.4S383.1,85.4,378.2,85.4z"/>
	</g>
</g>
</svg>
