<?xml version="1.0" encoding="utf-8"?>
<!-- Generator: Adobe Illustrator 27.5.0, SVG Export Plug-In . SVG Version: 6.00 Build 0)  -->
<svg version="1.1" xmlns="http://www.w3.org/2000/svg" xmlns:xlink="http://www.w3.org/1999/xlink" x="0px" y="0px"
	 viewBox="0 0 3932.2 348" style="enable-background:new 0 0 3932.2 348;" xml:space="preserve">
<g id="Layer_8_xA0_Image_00000106853501207934256360000011633322638798376601_">
	
		<image style="overflow:visible;" width="16384" height="1450" id="Layer_8_xA0_Image" xlink:href="D0C0C04C.png"  transform="matrix(0.24 0 0 0.24 0 0)">
	</image>
</g>
<g id="Layer_2">
	<g>
		<path d="M1798.4,95.1c-1.2,0-2.1-0.2-2.8-0.7c-0.7-0.5-1.1-1.1-1.3-2c-0.3-0.9-0.4-1.9-0.4-3.1v-8.7h5.4v7.9
			c0,0.7,0.1,1.3,0.4,1.7c0.3,0.4,0.7,0.6,1.3,0.6c0.5,0,1-0.2,1.5-0.7c0.5-0.5,0.7-1.1,0.7-2v-7.6h5.4V90l0.6,3l-0.6,1.8h-5.1v-1.5
			l-0.3-0.1c-0.3,0.3-0.6,0.5-1.1,0.8c-0.5,0.3-1,0.6-1.7,0.8C1799.8,95,1799.1,95.1,1798.4,95.1z"/>
		<path d="M1818.4,95.1c-1.4,0-2.6-0.2-3.7-0.7c-1.1-0.5-2-1.2-2.6-2.3c-0.6-1.1-1-2.5-1-4.4c0-1.9,0.3-3.3,1-4.4
			c0.7-1.1,1.6-1.8,2.7-2.3c1.1-0.5,2.3-0.7,3.6-0.7c1.1,0,2,0,2.8,0.1s1.3,0.1,1.6,0.2l2.3,2.6l-2.4,3.3l-3.5-2
			c-1.7,0-2.6,1.1-2.6,3.2c0,1.1,0.3,1.9,0.8,2.4c0.5,0.5,1.3,0.8,2.4,0.8s2-0.1,2.9-0.5c0.9-0.3,1.5-0.6,2-0.8v4.3
			c-0.6,0.3-1.4,0.6-2.4,0.8C1821.4,95,1820,95.1,1818.4,95.1z"/>
		<path d="M1844.7,95.1c-1,0-1.7-0.1-2.3-0.3c-0.6-0.2-1.1-0.4-1.6-0.8v0.8h-5.4V78.4l-0.6-3l0.6-1.8h5.4v4.8l-0.3,3.4l0.3,0.2
			c0.4-0.4,0.9-0.7,1.5-1.1c0.6-0.3,1.4-0.5,2.4-0.5c1.8,0,3.2,0.6,4.2,1.7s1.5,2.9,1.5,5.4c0,1.8-0.3,3.3-0.8,4.5
			c-0.5,1.1-1.2,1.9-2.1,2.4C1846.7,94.8,1845.8,95.1,1844.7,95.1z M1842.2,91c0.8,0,1.4-0.3,1.9-0.8s0.7-1.4,0.7-2.5
			c0-1.1-0.2-1.9-0.6-2.4s-0.9-0.7-1.7-0.7l-1.7,0.6v5.4C1841.2,90.8,1841.7,91,1842.2,91z"/>
		<path d="M1859.9,95.1c-1.5,0-2.9-0.2-4.1-0.7c-1.2-0.5-2.1-1.2-2.8-2.3c-0.7-1.1-1-2.5-1-4.4c0-1.3,0.2-2.4,0.7-3.4
			c0.5-0.9,1.1-1.7,1.8-2.3c0.8-0.6,1.6-1,2.5-1.3c0.9-0.3,1.9-0.4,2.9-0.4c1.7,0,3,0.2,4,0.5c0.9,0.3,1.5,0.6,1.8,0.8l1.5,4.8
			l-0.6,1.9h-9.3c0.1,0.7,0.5,1.4,1.1,1.9c0.6,0.5,1.6,0.8,3,0.8c1.1,0,2-0.1,2.8-0.4c0.8-0.2,1.4-0.5,1.8-0.6v4
			c-0.6,0.3-1.5,0.6-2.6,0.8C1862.2,95,1861.1,95.1,1859.9,95.1z M1857.3,86.4l4.1-0.6l-0.3-1.3c-0.1-0.1-0.3-0.1-0.6-0.2
			c-0.3,0-0.5-0.1-0.7-0.1c-0.6,0-1,0.1-1.4,0.4c-0.4,0.2-0.6,0.5-0.8,0.9C1857.4,85.8,1857.3,86.1,1857.3,86.4z"/>
		<path d="M1869.7,94.8v-9.4l-0.6-3l0.6-1.8h4.1l0.6,0.7c0.6-0.3,1.1-0.6,1.6-0.8c0.5-0.2,1.1-0.2,1.8-0.2c0.4,0,0.8,0,1.2,0.1
			s0.7,0.1,0.9,0.2l2,1.7l-2,3.8l-4-1.6l-0.9,0.3v10H1869.7z"/>
		<path d="M1883.7,94.8V78.3l-0.6-3l0.6-1.8h5.4v4.8l-0.3,7.8h1.2l2.3-5.5h6.1v1.8l-3.3,4.9l2.2,2.7l2.8,3v1.8h-5.8l-3.4-5l-1.8,0.3
			v4.6H1883.7z"/>
		<path d="M1909.1,95.1c-1.5,0-2.9-0.2-4.1-0.7c-1.2-0.5-2.1-1.2-2.8-2.3c-0.7-1.1-1-2.5-1-4.4c0-1.3,0.2-2.4,0.7-3.4
			c0.5-0.9,1.1-1.7,1.8-2.3c0.8-0.6,1.6-1,2.5-1.3c0.9-0.3,1.9-0.4,2.9-0.4c1.7,0,3,0.2,4,0.5c0.9,0.3,1.5,0.6,1.8,0.8l1.5,4.8
			l-0.6,1.9h-9.3c0.1,0.7,0.5,1.4,1.1,1.9c0.6,0.5,1.6,0.8,3,0.8c1.1,0,2-0.1,2.8-0.4c0.8-0.2,1.4-0.5,1.8-0.6v4
			c-0.6,0.3-1.5,0.6-2.6,0.8C1911.5,95,1910.3,95.1,1909.1,95.1z M1906.6,86.4l4.1-0.6l-0.3-1.3c-0.1-0.1-0.3-0.1-0.6-0.2
			c-0.3,0-0.5-0.1-0.7-0.1c-0.6,0-1,0.1-1.4,0.4c-0.4,0.2-0.6,0.5-0.8,0.9C1906.7,85.8,1906.6,86.1,1906.6,86.4z"/>
		<path d="M1919,94.8l0-16.4l-0.6-3l0.6-1.8h5.4v21.2H1919z"/>
		<path d="M1934.9,95.1c-1.5,0-2.9-0.2-4.1-0.7c-1.2-0.5-2.1-1.2-2.8-2.3c-0.7-1.1-1-2.5-1-4.4c0-1.3,0.2-2.4,0.7-3.4
			c0.5-0.9,1.1-1.7,1.8-2.3c0.8-0.6,1.6-1,2.5-1.3c0.9-0.3,1.9-0.4,2.9-0.4c1.7,0,3,0.2,4,0.5c0.9,0.3,1.5,0.6,1.8,0.8l1.5,4.8
			l-0.6,1.9h-9.3c0.1,0.7,0.5,1.4,1.1,1.9c0.6,0.5,1.6,0.8,3,0.8c1.1,0,2-0.1,2.8-0.4c0.8-0.2,1.4-0.5,1.8-0.6v4
			c-0.6,0.3-1.5,0.6-2.6,0.8C1937.3,95,1936.1,95.1,1934.9,95.1z M1932.3,86.4l4.1-0.6l-0.3-1.3c-0.1-0.1-0.3-0.1-0.6-0.2
			c-0.3,0-0.5-0.1-0.7-0.1c-0.6,0-1,0.1-1.4,0.4c-0.4,0.2-0.6,0.5-0.8,0.9C1932.5,85.8,1932.4,86.1,1932.3,86.4z"/>
		<path d="M1946,102.1l-4.2-1.5l1.2-4.5l4.2,1.2c0.9,0,1.5-0.2,1.9-0.7c0.4-0.5,0.7-1.1,0.9-1.9h-3.1l-3.3-10.3l-0.6-3.9h5.7
			l1.6,9.9h0.6l1.6-9.9h5.7c-0.3,1.3-0.5,2.4-0.7,3.4c-0.2,1-0.5,2.2-0.8,3.4c-0.3,1.3-0.6,2.5-1,3.8c-0.3,1.3-0.7,2.4-1,3.5
			c-0.5,1.7-1.2,3-1.9,4.1s-1.7,1.9-2.7,2.4C1948.9,101.8,1947.6,102.1,1946,102.1z"/>
		<path d="M1973.4,95.1c-1.5,0-2.8-0.1-3.9-0.4c-1.1-0.3-2-0.6-2.6-0.9v-4.2c0.8,0.4,1.7,0.6,2.5,0.8c0.9,0.2,1.7,0.3,2.4,0.4
			c0.7,0.1,1.2,0.1,1.5,0.1c0.3,0,0.6-0.1,0.7-0.2c0.1-0.1,0.2-0.2,0.2-0.4c0-0.2-0.2-0.4-0.5-0.6c-0.4-0.1-1-0.3-2-0.6
			c-0.8-0.2-1.6-0.5-2.4-0.8c-0.8-0.3-1.4-0.7-1.9-1.3c-0.5-0.6-0.7-1.3-0.7-2.2c0-1.2,0.3-2.1,0.8-2.7c0.5-0.7,1.3-1.1,2.3-1.4
			s2.2-0.4,3.5-0.4c0.8,0,1.5,0,2.1,0.1s1.1,0.1,1.4,0.2l2.8,1.8l-1.4,3.2l-5.2-1.1c-0.6,0-1,0.2-1,0.6c0,0.4,0.5,0.8,1.4,1
			c0.7,0.2,1.5,0.3,2.2,0.5c0.8,0.2,1.5,0.4,2.1,0.7c0.6,0.3,1.1,0.7,1.5,1.2c0.4,0.5,0.6,1.2,0.6,2c0,1.5-0.5,2.7-1.6,3.4
			S1975.5,95.1,1973.4,95.1z"/>
		<path d="M1982.5,102.1V85.7l-0.6-3.3l0.9-1.8h4.5v1.3l0.3,0.1c0.7-0.6,1.4-1,2-1.3c0.6-0.3,1.4-0.4,2.2-0.4c1.8,0,3.2,0.6,4.2,1.7
			c1,1.1,1.5,2.9,1.5,5.4c0,1.8-0.3,3.3-0.8,4.5c-0.5,1.1-1.2,1.9-2.1,2.4s-1.8,0.8-2.9,0.8c-1.4,0-2.8-0.2-3.9-0.7v7.7H1982.5z
			 M1989.3,90.9c0.8,0,1.4-0.3,1.8-0.8s0.7-1.4,0.7-2.5c0-1.1-0.2-1.9-0.6-2.4s-0.9-0.8-1.7-0.8l-1.7,0.6v5.4
			C1988.3,90.8,1988.8,90.9,1989.3,90.9z"/>
		<path d="M2000.1,94.8v-9.4l-0.6-3l0.6-1.8h4.1l0.6,0.7c0.6-0.3,1.1-0.6,1.6-0.8c0.5-0.2,1.1-0.2,1.8-0.2c0.4,0,0.8,0,1.2,0.1
			s0.7,0.1,0.9,0.2l2,1.7l-2,3.8l-4-1.6l-0.9,0.3v10H2000.1z"/>
		<path d="M2016.8,79.8l-3.8-3.8l3.8-3.8l3.8,3.8L2016.8,79.8z M2014.1,94.8v-9.9l-0.6-2.4l0.6-1.8h5.4v14.2H2014.1z"/>
		<path d="M2022.8,94.8v-9l-0.6-3.3l0.9-1.8h4.5v1.3l0.3,0.2c0.2-0.2,0.5-0.4,0.9-0.7c0.4-0.3,0.9-0.5,1.4-0.7
			c0.6-0.2,1.2-0.3,1.9-0.3c1.8,0,3.2,0.5,4.1,1.5c0.9,1,1.3,2.5,1.3,4.3V90l0.6,3l-0.6,1.8h-5.4v-7.9c0-0.8-0.2-1.3-0.5-1.8
			c-0.3-0.4-0.8-0.6-1.5-0.6l-1.9,0.6v9.7H2022.8z"/>
		<path d="M2046.9,102.1c-0.5,0-1.1,0-1.7,0c-0.6,0-1.2-0.1-1.6-0.1l-3.7-1.8l1.5-3.9l4.7,1.5c2.7,0,4-1.1,4-3.3v-0.6l-0.3-0.1
			c-0.3,0.3-0.7,0.6-1.3,0.9c-0.6,0.3-1.6,0.4-2.9,0.4c-0.9,0-1.9-0.2-2.7-0.7s-1.6-1.2-2.1-2.3c-0.6-1-0.8-2.4-0.8-4
			c0-1.9,0.3-3.4,0.8-4.5c0.6-1.1,1.3-2,2.1-2.5c0.9-0.5,1.8-0.8,2.7-0.8c1,0,1.9,0.1,2.6,0.5c0.7,0.3,1.1,0.6,1.3,0.9v-1h5.4
			l0.3,1.8l-0.3,1.8l0,10.6c0,1.7-0.3,3.1-1,4.2c-0.7,1.1-1.6,1.9-2.8,2.4C2050,101.8,2048.6,102.1,2046.9,102.1z M2048,90.8
			c0.4,0,0.7,0,1-0.1c0.3-0.1,0.5-0.2,0.7-0.3v-5.6c-0.1-0.1-0.2-0.1-0.4-0.2c-0.2-0.1-0.5-0.1-0.9-0.1c-0.8,0-1.4,0.3-1.9,0.8
			c-0.5,0.5-0.7,1.3-0.7,2.4c0,1.1,0.2,1.9,0.7,2.4C2046.8,90.5,2047.3,90.8,2048,90.8z"/>
		<path d="M2064.9,94.8v-4.2c0.8-0.5,1.4-0.9,2-1.4c0.6-0.4,1.2-0.9,2-1.4c0.7-0.5,1.4-1.1,2-1.6c0.9-0.8,1.7-1.5,2.2-2.1
			s1-1.2,1.3-1.8c0.3-0.6,0.5-1.3,0.5-2.1c0-1.3-0.8-1.9-2.5-1.9c-0.8,0-1.7,0.1-2.5,0.3s-1.6,0.5-2.3,0.7c-0.7,0.3-1.3,0.5-1.7,0.7
			V75c0.6-0.3,1.5-0.7,2.8-1.1c1.3-0.4,2.8-0.6,4.7-0.6c2.6,0,4.5,0.5,5.7,1.6c1.2,1.1,1.8,2.7,1.8,4.9c0,1.1-0.2,2.2-0.6,3.1
			c-0.4,0.9-1,1.7-1.6,2.4c-0.7,0.7-1.4,1.3-2.1,1.8c-0.8,0.5-1.5,1-2.1,1.3c-0.7,0.4-1.2,0.6-1.7,0.9l0.1,0.6l8-0.6v5.4H2064.9z"/>
		<path d="M2092.2,95.1c-1.7,0-3.2-0.3-4.6-1c-1.4-0.7-2.4-1.8-3.2-3.4s-1.2-3.7-1.2-6.4c0-2.7,0.4-4.8,1.2-6.4
			c0.8-1.6,1.8-2.7,3.2-3.5c1.3-0.7,2.9-1.1,4.6-1.1c1.7,0,3.2,0.4,4.6,1.1c1.3,0.7,2.4,1.9,3.2,3.5c0.8,1.6,1.2,3.7,1.2,6.4
			c0,2.7-0.4,4.8-1.2,6.4s-1.8,2.8-3.2,3.5C2095.4,94.7,2093.9,95.1,2092.2,95.1z M2092.2,89.9c1.1,0,1.9-0.4,2.4-1.3
			c0.5-0.8,0.8-2.3,0.8-4.4c0-2.1-0.3-3.6-0.8-4.4s-1.4-1.3-2.4-1.3c-1.1,0-1.9,0.4-2.4,1.3c-0.6,0.9-0.8,2.3-0.8,4.4
			c0,2.1,0.3,3.6,0.8,4.4C2090.3,89.4,2091.1,89.9,2092.2,89.9z"/>
		<path d="M2103.5,94.8v-4.2c0.8-0.5,1.4-0.9,2-1.4c0.6-0.4,1.2-0.9,2-1.4c0.7-0.5,1.4-1.1,2-1.6c0.9-0.8,1.7-1.5,2.2-2.1
			s1-1.2,1.3-1.8c0.3-0.6,0.5-1.3,0.5-2.1c0-1.3-0.8-1.9-2.5-1.9c-0.8,0-1.7,0.1-2.5,0.3s-1.6,0.5-2.3,0.7c-0.7,0.3-1.3,0.5-1.7,0.7
			V75c0.6-0.3,1.5-0.7,2.8-1.1c1.3-0.4,2.8-0.6,4.7-0.6c2.6,0,4.5,0.5,5.7,1.6c1.2,1.1,1.8,2.7,1.8,4.9c0,1.1-0.2,2.2-0.6,3.1
			c-0.4,0.9-1,1.7-1.6,2.4c-0.7,0.7-1.4,1.3-2.1,1.8c-0.8,0.5-1.5,1-2.1,1.3c-0.7,0.4-1.2,0.6-1.7,0.9l0.1,0.6l8-0.6v5.4H2103.5z"/>
		<path d="M2129,95.1c-0.6,0-1.2,0-1.8-0.1c-0.6,0-1.1-0.1-1.6-0.2l-3.8-1.7l1.5-4.8l6,1.6c1.2,0,2-0.2,2.5-0.6s0.8-0.9,0.8-1.5
			c0-0.5-0.2-0.9-0.6-1.1c-0.4-0.2-1-0.3-1.9-0.3h-3.7v-4.8h3.4c0.7,0,1.2-0.1,1.6-0.4c0.4-0.3,0.6-0.7,0.6-1.2
			c0-0.6-0.2-1.1-0.6-1.3c-0.4-0.2-0.9-0.4-1.6-0.4c-1,0-2,0.1-2.9,0.3c-0.9,0.2-1.7,0.4-2.5,0.7s-1.3,0.5-1.8,0.7V75
			c0.4-0.2,1-0.4,1.7-0.7c0.7-0.3,1.6-0.5,2.7-0.7c1-0.2,2.2-0.3,3.4-0.3c2.3,0,4,0.5,5.1,1.5c1.2,1,1.8,2.4,1.8,4.2
			c0,1-0.2,1.9-0.6,2.6c-0.4,0.7-0.9,1.2-1.4,1.6c0.8,0.4,1.5,0.9,2.1,1.7c0.6,0.8,0.9,1.8,0.9,3.1
			C2138.3,92.7,2135.2,95.1,2129,95.1z"/>
		<path d="M1457.7,166.8v-16.4l-0.6-3l0.6-1.8h9.6c1.5,0,2.8,0.2,3.9,0.7c1.2,0.4,2.1,1.2,2.8,2.3c0.7,1.1,1,2.5,1,4.4
			c0,1.7-0.3,3.1-0.9,4.1c-0.6,1-1.5,1.8-2.6,2.4l0.3,0.3l3,3.7l1.7,1.5v1.8h-6.8l-4.2-6.4h-2.5v1.6l0.3,3l-0.3,1.8H1457.7z
			 M1463.1,155.7h2.9c1,0,1.9-0.2,2.5-0.6c0.6-0.4,0.9-1.1,0.9-2.2c0-0.7-0.2-1.3-0.5-1.7s-0.7-0.6-1.2-0.7
			c-0.5-0.1-1.1-0.2-1.8-0.2h-3.1L1463.1,155.7z"/>
		<path d="M1477.1,166.8l1.4-5.1v-3.8l2.2-0.9l3.9-11.4h7.8l4.8,13.4l2.3,4.3v3.5h-5.3l-1.5-4.8h-8.7l-1.3,4.8H1477.1z M1486,157.4
			h5.1l-2.3-6.9h-0.6L1486,157.4z"/>
		<path d="M1502.3,166.8v-16.4l-0.6-3l0.6-1.8h8.9c1.4,0,2.8,0.1,4.2,0.4c1.3,0.3,2.5,0.8,3.6,1.5c1.1,0.7,1.9,1.8,2.5,3.2
			c0.6,1.4,0.9,3.2,0.9,5.4c0,2.2-0.3,4-0.9,5.4c-0.6,1.4-1.5,2.5-2.5,3.3c-1.1,0.8-2.3,1.3-3.6,1.6c-1.3,0.3-2.7,0.5-4.1,0.5
			H1502.3z M1507.7,162h3.5c1.8,0,3.1-0.5,4.1-1.4c0.9-0.9,1.4-2.5,1.4-4.6c0-2.1-0.5-3.6-1.4-4.4c-1-0.8-2.3-1.2-4-1.2h-3.5V162z"
			/>
		<path d="M1525.6,166.8v-16.4l-0.3-3l0.3-1.8h5.4v21.2H1525.6z"/>
		<path d="M1544.8,167.1c-1.4,0-2.7-0.2-4-0.5c-1.3-0.3-2.4-0.9-3.5-1.7c-1-0.8-1.8-1.9-2.4-3.3c-0.6-1.4-0.9-3.2-0.9-5.5
			c0-2.1,0.3-3.8,0.9-5.2c0.6-1.4,1.4-2.5,2.4-3.4c1-0.8,2.1-1.4,3.3-1.8c1.2-0.4,2.4-0.6,3.6-0.6c1,0,2,0.1,3,0.2
			c1,0.2,1.7,0.3,2.1,0.5l3.3,2.7l-2.7,4.3l-5.1-2.6c-1.4,0-2.6,0.5-3.6,1.4c-1,0.9-1.5,2.4-1.5,4.3c0,1.4,0.2,2.5,0.7,3.4
			s1.2,1.5,2,1.9c0.9,0.4,1.8,0.6,2.9,0.6c1.2,0,2.1-0.1,3-0.3c0.8-0.2,1.5-0.4,2.2-0.7c0.6-0.3,1.2-0.5,1.8-0.8v5
			c-0.7,0.4-1.6,0.9-2.8,1.2C1548.4,166.9,1546.8,167.1,1544.8,167.1z"/>
		<path d="M1554,166.8l1.4-5.1v-3.8l2.2-0.9l3.9-11.4h7.8l4.8,13.4l2.3,4.3v3.5h-5.3l-1.5-4.8h-8.7l-1.3,4.8H1554z M1562.9,157.4
			h5.1l-2.3-6.9h-0.6L1562.9,157.4z"/>
		<path d="M1579.2,166.8l-0.6-1.8l0.6-3v-16.4h5.4v12.3l-0.3,4.1h0.6l5.4-0.3l2.1-0.3l2.6,3.5l-1.5,1.9H1579.2z"/>
		<path d="M1604.6,166.8v-16.4l-0.3-3l0.3-1.8h5.4v8.1h7.5v-8.1h5.4v11.3l0.3,2.1v7.9h-5.7v-7.9h-7.5v1.8l0.3,6.1H1604.6z"/>
		<path d="M1627.1,166.8v-16.4l-0.3-3l0.3-1.8h5.4v21.2H1627.1z"/>
		<path d="M1643.6,167.1c-1.1,0-2.1-0.1-3.1-0.3c-1-0.2-1.8-0.5-2.6-0.8c-0.7-0.3-1.2-0.6-1.6-0.8v-5.4c1,0.5,2.2,1,3.6,1.5
			c1.5,0.5,3.1,0.7,4.9,0.7c0.7,0,1.3-0.1,1.6-0.3c0.4-0.2,0.5-0.5,0.5-1c0-0.5-0.4-1-1.2-1.3c-0.8-0.3-2-0.8-3.7-1.3
			c-1.3-0.4-2.4-0.9-3.4-1.4c-0.9-0.5-1.6-1.1-2.1-1.9c-0.5-0.8-0.7-1.8-0.7-3c0-1.2,0.3-2.4,1-3.4c0.6-1,1.6-1.8,3-2.4
			c1.4-0.6,3.1-0.9,5.2-0.9c0.6,0,1.3,0,2.1,0.1s1.3,0.1,1.8,0.2l3.4,2.5l-1.2,3.7l-7.1-1.9c-0.8,0-1.4,0.2-1.8,0.5
			c-0.4,0.3-0.6,0.8-0.6,1.2c0,0.6,0.3,1,1,1.4c0.7,0.3,1.6,0.7,2.9,1c2,0.5,3.5,1.1,4.6,1.8c1.1,0.7,1.8,1.4,2.3,2.2
			c0.4,0.8,0.7,1.8,0.7,2.8c0,1.9-0.8,3.5-2.3,4.6C1649,166.5,1646.7,167.1,1643.6,167.1z"/>
		<path d="M1660.6,166.8v-16.4l-6,0.3v-5.1h17.5v5.1l-6.1-0.3V162l0.3,3l-0.3,1.8H1660.6z"/>
		<path d="M1683.7,167.1c-1.3,0-2.5-0.2-3.7-0.5c-1.2-0.3-2.3-0.9-3.3-1.7c-1-0.8-1.7-1.9-2.3-3.3c-0.6-1.4-0.9-3.2-0.9-5.5
			c0-2.2,0.3-4,0.9-5.5c0.6-1.4,1.3-2.5,2.3-3.3c1-0.8,2.1-1.4,3.3-1.7c1.2-0.3,2.5-0.5,3.7-0.5c1.3,0,2.5,0.2,3.7,0.5
			c1.2,0.3,2.3,0.9,3.3,1.7c1,0.8,1.7,1.9,2.3,3.3s0.9,3.2,0.9,5.4c0,2.2-0.3,4-0.9,5.4c-0.6,1.4-1.3,2.5-2.3,3.3
			c-1,0.8-2.1,1.4-3.3,1.7C1686.3,166.9,1685,167.1,1683.7,167.1z M1683.7,162c1.5,0,2.6-0.4,3.4-1.3c0.8-0.9,1.1-2.4,1.1-4.5
			c0-2.1-0.4-3.6-1.1-4.5c-0.8-0.9-1.9-1.3-3.4-1.3c-1.5,0-2.6,0.4-3.3,1.4c-0.8,0.9-1.1,2.4-1.1,4.5c0,2.1,0.4,3.6,1.1,4.5
			C1681.2,161.5,1682.3,162,1683.7,162z"/>
		<path d="M1697.5,166.8v-16.4l-0.6-3l0.6-1.8h9.6c1.5,0,2.8,0.2,3.9,0.7c1.2,0.4,2.1,1.2,2.8,2.3c0.7,1.1,1,2.5,1,4.4
			c0,1.7-0.3,3.1-0.9,4.1c-0.6,1-1.5,1.8-2.6,2.4l0.3,0.3l3,3.7l1.7,1.5v1.8h-6.8l-4.2-6.4h-2.5v1.6l0.3,3l-0.3,1.8H1697.5z
			 M1702.9,155.7h2.9c1,0,1.9-0.2,2.5-0.6c0.6-0.4,0.9-1.1,0.9-2.2c0-0.7-0.2-1.3-0.5-1.7s-0.7-0.6-1.2-0.7
			c-0.5-0.1-1.1-0.2-1.8-0.2h-3.1L1702.9,155.7z"/>
		<path d="M1723.5,166.8v-9l-7.4-10.4v-1.8h6.3l3.6,6.8h0.6l3.6-6.8h6.3v1.8l-7.6,10.6l0.2,3v5.8H1723.5z"/>
		<path d="M1755.6,167.1c-1.3,0-2.5-0.2-3.7-0.5c-1.2-0.3-2.3-0.9-3.3-1.7c-1-0.8-1.7-1.9-2.3-3.3c-0.6-1.4-0.9-3.2-0.9-5.5
			c0-2.2,0.3-4,0.9-5.5c0.6-1.4,1.3-2.5,2.3-3.3c1-0.8,2.1-1.4,3.3-1.7c1.2-0.3,2.5-0.5,3.7-0.5c1.3,0,2.5,0.2,3.7,0.5
			c1.2,0.3,2.3,0.9,3.3,1.7c1,0.8,1.7,1.9,2.3,3.3c0.6,1.4,0.9,3.2,0.9,5.4c0,2.2-0.3,4-0.9,5.4c-0.6,1.4-1.3,2.5-2.3,3.3
			c-1,0.8-2.1,1.4-3.3,1.7C1758.1,166.9,1756.9,167.1,1755.6,167.1z M1755.6,162c1.5,0,2.6-0.4,3.4-1.3c0.8-0.9,1.1-2.4,1.1-4.5
			c0-2.1-0.4-3.6-1.1-4.5c-0.8-0.9-1.9-1.3-3.4-1.3c-1.5,0-2.6,0.4-3.3,1.4c-0.8,0.9-1.1,2.4-1.1,4.5c0,2.1,0.4,3.6,1.1,4.5
			C1753,161.5,1754.1,162,1755.6,162z"/>
		<path d="M1769.4,166.8v-16.4l-0.6-3.1l0.6-1.8h14.8l1.5,0.9l-2,4.2l-2.7-0.3h-6.6l0.3,3.3h8.1v4.6h-3.6l-4.4-0.3v4l0.3,3l-0.3,1.8
			H1769.4z"/>
		<path d="M1802.4,167.1c-1.1,0-2.1-0.1-3.1-0.3c-1-0.2-1.8-0.5-2.5-0.8c-0.7-0.3-1.2-0.6-1.6-0.8v-5.4c1,0.5,2.2,1,3.6,1.5
			c1.5,0.5,3.1,0.7,4.9,0.7c0.7,0,1.3-0.1,1.6-0.3c0.3-0.2,0.5-0.5,0.5-1c0-0.5-0.4-1-1.2-1.3c-0.8-0.3-2-0.8-3.7-1.3
			c-1.3-0.4-2.4-0.9-3.4-1.4c-0.9-0.5-1.6-1.1-2.1-1.9c-0.5-0.8-0.7-1.8-0.7-3c0-1.2,0.3-2.4,1-3.4c0.6-1,1.6-1.8,3-2.4
			s3.1-0.9,5.2-0.9c0.6,0,1.3,0,2.1,0.1c0.7,0,1.3,0.1,1.8,0.2l3.4,2.5l-1.2,3.7l-7.1-1.9c-0.8,0-1.4,0.2-1.8,0.5
			c-0.4,0.3-0.6,0.8-0.6,1.2c0,0.6,0.3,1,1,1.4c0.7,0.3,1.6,0.7,2.8,1c2,0.5,3.5,1.1,4.6,1.8c1.1,0.7,1.8,1.4,2.3,2.2
			c0.4,0.8,0.7,1.8,0.7,2.8c0,1.9-0.8,3.5-2.3,4.6C1807.8,166.5,1805.5,167.1,1802.4,167.1z"/>
		<path d="M1815.2,166.8v-16.4l-0.6-3.1l0.6-1.8h14.8l1.5,0.9l-2,4.2l-2.7-0.3h-6.6l0.3,3.3h8.1v4.6h-3.6l-4.4-0.3v4l0.3,3l-0.3,1.8
			H1815.2z"/>
		<path d="M1850.9,167.1c-1.4,0-2.7-0.2-4-0.5c-1.3-0.3-2.4-0.9-3.5-1.7c-1-0.8-1.8-1.9-2.4-3.3c-0.6-1.4-0.9-3.2-0.9-5.5
			c0-2.1,0.3-3.8,0.9-5.2c0.6-1.4,1.4-2.5,2.4-3.4s2.1-1.4,3.3-1.8c1.2-0.4,2.4-0.6,3.6-0.6c1,0,2,0.1,3,0.2c1,0.2,1.7,0.3,2.1,0.5
			l3.3,2.7l-2.7,4.3l-5.1-2.6c-1.4,0-2.6,0.5-3.6,1.4c-1,0.9-1.5,2.4-1.5,4.3c0,1.4,0.2,2.5,0.7,3.4s1.2,1.5,2,1.9
			c0.9,0.4,1.8,0.6,2.9,0.6c1.2,0,2.2-0.1,3-0.3c0.8-0.2,1.5-0.4,2.2-0.7c0.6-0.3,1.2-0.5,1.8-0.8v5c-0.7,0.4-1.6,0.9-2.8,1.2
			S1852.9,167.1,1850.9,167.1z"/>
		<path d="M1861.9,166.8v-16.4l-0.3-3l0.3-1.8h5.4v8.1h7.5v-8.1h5.4v11.3l0.3,2.1v7.9h-5.7v-7.9h-7.5v1.8l0.3,6.1H1861.9z"/>
		<path d="M1884.3,166.8v-16.4l-0.3-3l0.3-1.8h5.4v21.2H1884.3z"/>
		<path d="M1894,166.8v-16.4l-0.6-3l0.6-1.8h4.8l6.1,8.2l1.4,2.5h0.3v-10.6h5.7v1.8l-0.3,3v16.4h-4.7l-7.5-10.6h-0.3v1.8l0.3,8.8
			H1894z"/>
		<path d="M1914.4,166.8l1.4-5.1v-3.8l2.2-0.9l3.9-11.4h7.8l4.8,13.4l2.3,4.3v3.5h-5.3l-1.5-4.8h-8.7l-1.3,4.8H1914.4z
			 M1923.3,157.4h5.1l-2.3-6.9h-0.6L1923.3,157.4z"/>
		<path d="M1941.9,166.8v-16.4l-6,0.3v-5.1h17.6v5.1l-6.2-0.3V162l0.3,3l-0.3,1.8H1941.9z"/>
		<path d="M1965,167.1c-1.3,0-2.5-0.2-3.7-0.5c-1.2-0.3-2.3-0.9-3.3-1.7c-1-0.8-1.7-1.9-2.3-3.3c-0.6-1.4-0.9-3.2-0.9-5.5
			c0-2.2,0.3-4,0.9-5.5c0.6-1.4,1.3-2.5,2.3-3.3c1-0.8,2.1-1.4,3.3-1.7c1.2-0.3,2.5-0.5,3.7-0.5c1.3,0,2.5,0.2,3.7,0.5
			c1.2,0.3,2.3,0.9,3.3,1.7c1,0.8,1.7,1.9,2.3,3.3c0.6,1.4,0.9,3.2,0.9,5.4c0,2.2-0.3,4-0.9,5.4c-0.6,1.4-1.3,2.5-2.3,3.3
			c-1,0.8-2.1,1.4-3.3,1.7C1967.6,166.9,1966.3,167.1,1965,167.1z M1965,162c1.5,0,2.6-0.4,3.4-1.3c0.8-0.9,1.1-2.4,1.1-4.5
			c0-2.1-0.4-3.6-1.1-4.5c-0.8-0.9-1.9-1.3-3.4-1.3c-1.5,0-2.6,0.4-3.3,1.4c-0.8,0.9-1.1,2.4-1.1,4.5c0,2.1,0.4,3.6,1.1,4.5
			C1962.5,161.5,1963.6,162,1965,162z"/>
		<path d="M1982.1,166.8l-4.8-16.5l-0.9-3v-1.8h5.7l3.8,15.5h0.6l2.8-15.5h7.9l2.3,11.7l0.5,3.8h0.6l3.7-15.5h5.6v1.8l-0.9,3
			l-4.7,16.5h-7.8l-3.1-15.7h-0.6l-0.5,3.6l-2.5,12H1982.1z"/>
		<path d="M2013,166.8v-16.4l-0.6-3l0.6-1.8h4.8l6.1,8.2l1.4,2.5h0.3v-10.6h5.7v1.8l-0.3,3v16.4h-4.7l-7.5-10.6h-0.3v1.8l0.3,8.8
			H2013z"/>
		<path d="M2037.9,158.7l-3.3-3.3l3.3-3.3l3.3,3.3L2037.9,158.7z M2037.9,167.7l-3.3-3.3l3.3-3.3l3.3,3.3L2037.9,167.7z"/>
		<path d="M2052.3,166.8v-16.4l-0.6-3l0.6-1.8h8.9c1.4,0,2.8,0.1,4.2,0.4s2.5,0.8,3.6,1.5c1,0.7,1.9,1.8,2.5,3.2
			c0.6,1.4,0.9,3.2,0.9,5.4c0,2.2-0.3,4-0.9,5.4s-1.5,2.5-2.5,3.3c-1.1,0.8-2.3,1.3-3.6,1.6c-1.3,0.3-2.7,0.5-4.1,0.5H2052.3z
			 M2057.7,162h3.5c1.8,0,3.1-0.5,4-1.4c0.9-0.9,1.4-2.5,1.4-4.6c0-2.1-0.5-3.6-1.4-4.4c-1-0.8-2.3-1.2-4-1.2h-3.5V162z"/>
		<path d="M2076,166.8l-0.6-1.8l0.6-3v-16.4h14.8l1.5,0.9l-2,4.2l-2.7-0.3h-6.3v3.3h8.1v4.6h-3.5l-4.5-0.3v4h9l3.6,2.9l-1.8,1.9
			H2076z"/>
		<path d="M2103.5,167.1c-1.1,0-2.1-0.1-3.1-0.3c-1-0.2-1.8-0.5-2.5-0.8c-0.7-0.3-1.2-0.6-1.6-0.8v-5.4c1,0.5,2.2,1,3.6,1.5
			c1.5,0.5,3.1,0.7,4.9,0.7c0.7,0,1.3-0.1,1.6-0.3c0.3-0.2,0.5-0.5,0.5-1c0-0.5-0.4-1-1.2-1.3c-0.8-0.3-2-0.8-3.7-1.3
			c-1.3-0.4-2.4-0.9-3.4-1.4c-0.9-0.5-1.6-1.1-2.1-1.9c-0.5-0.8-0.7-1.8-0.7-3c0-1.2,0.3-2.4,1-3.4c0.6-1,1.6-1.8,3-2.4
			s3.1-0.9,5.2-0.9c0.6,0,1.3,0,2.1,0.1c0.7,0,1.3,0.1,1.8,0.2l3.4,2.5l-1.2,3.7l-7.1-1.9c-0.8,0-1.4,0.2-1.8,0.5
			c-0.4,0.3-0.6,0.8-0.6,1.2c0,0.6,0.3,1,1,1.4c0.7,0.3,1.6,0.7,2.8,1c2,0.5,3.5,1.1,4.6,1.8c1.1,0.7,1.8,1.4,2.3,2.2
			c0.4,0.8,0.7,1.8,0.7,2.8c0,1.9-0.8,3.5-2.3,4.6C2108.9,166.5,2106.6,167.1,2103.5,167.1z"/>
		<path d="M2116,166.8v-16.4l-0.3-3l0.3-1.8h5.4v21.2H2116z"/>
		<path d="M2135.8,167.1c-1.5,0-3-0.2-4.4-0.5c-1.4-0.3-2.6-0.9-3.6-1.7c-1-0.8-1.9-1.9-2.5-3.3c-0.6-1.4-0.9-3.2-0.9-5.5
			c0-2.1,0.3-3.9,1-5.3c0.6-1.4,1.5-2.5,2.6-3.3c1.1-0.8,2.3-1.4,3.6-1.7c1.3-0.3,2.6-0.5,4-0.5c1,0,1.8,0.1,2.6,0.1
			c0.7,0.1,1.4,0.2,2.1,0.4l4.1,2.4l-2.1,4.6l-6.6-2.3c-1,0-1.8,0.2-2.7,0.6c-0.8,0.4-1.5,1-2,1.8c-0.5,0.8-0.7,1.9-0.7,3.3
			c0,2.3,0.5,3.8,1.5,4.8c1,0.9,2.4,1.4,4.2,1.4c0.9,0,1.6,0,2.1-0.1c0.5-0.1,0.9-0.2,1.2-0.2v-2.3h-3.8v-4.4h9.5l0.3,1.8l-0.7,2.5
			v6.3c-0.2,0.1-0.7,0.2-1.5,0.4c-0.8,0.2-1.8,0.4-3,0.6C2138.8,167,2137.4,167.1,2135.8,167.1z"/>
		<path d="M2148.8,166.8v-16.4l-0.6-3l0.6-1.8h4.8l6.1,8.2l1.4,2.5h0.3v-10.6h5.7v1.8l-0.3,3v16.4h-4.7l-7.5-10.6h-0.3v1.8l0.3,8.8
			H2148.8z"/>
		<path d="M2171,166.8v-16.4l-0.3-3l0.3-1.8h5.4v21.2H2171z"/>
		<path d="M2180.6,166.8v-16.4l-0.6-3l0.6-1.8h4.8l6.1,8.2l1.4,2.5h0.3v-10.6h5.7v1.8l-0.3,3v16.4h-4.7l-7.5-10.6h-0.3v1.8l0.3,8.8
			H2180.6z"/>
		<path d="M2213.3,167.1c-1.5,0-3-0.2-4.4-0.5c-1.4-0.3-2.6-0.9-3.6-1.7c-1-0.8-1.9-1.9-2.5-3.3c-0.6-1.4-0.9-3.2-0.9-5.5
			c0-2.1,0.3-3.9,1-5.3c0.6-1.4,1.5-2.5,2.6-3.3c1.1-0.8,2.3-1.4,3.6-1.7c1.3-0.3,2.6-0.5,4-0.5c1,0,1.8,0.1,2.6,0.1
			c0.7,0.1,1.4,0.2,2.1,0.4l4.1,2.4l-2.1,4.6l-6.6-2.3c-1,0-1.8,0.2-2.7,0.6c-0.8,0.4-1.5,1-2,1.8c-0.5,0.8-0.7,1.9-0.7,3.3
			c0,2.3,0.5,3.8,1.5,4.8c1,0.9,2.4,1.4,4.2,1.4c0.9,0,1.6,0,2.1-0.1c0.5-0.1,0.9-0.2,1.2-0.2v-2.3h-3.8v-4.4h9.5l0.3,1.8l-0.7,2.5
			v6.3c-0.2,0.1-0.7,0.2-1.5,0.4c-0.8,0.2-1.8,0.4-3,0.6C2216.3,167,2214.9,167.1,2213.3,167.1z"/>
		<path d="M2231.4,166.8l1.4-5.1v-3.8l2.2-0.9l3.9-11.4h7.8l4.8,13.4l2.3,4.3v3.5h-5.3l-1.5-4.8h-8.7l-1.3,4.8H2231.4z
			 M2240.3,157.4h5.1l-2.3-6.9h-0.6L2240.3,157.4z"/>
		<path d="M2263.7,166.8v-16.4l-0.6-3l0.6-1.8h8.9c1.4,0,2.8,0.1,4.2,0.4s2.5,0.8,3.6,1.5c1,0.7,1.9,1.8,2.5,3.2
			c0.6,1.4,0.9,3.2,0.9,5.4c0,2.2-0.3,4-0.9,5.4s-1.5,2.5-2.5,3.3c-1.1,0.8-2.3,1.3-3.6,1.6c-1.3,0.3-2.7,0.5-4.1,0.5H2263.7z
			 M2269.2,162h3.5c1.8,0,3.1-0.5,4-1.4c0.9-0.9,1.4-2.5,1.4-4.6c0-2.1-0.5-3.6-1.4-4.4c-1-0.8-2.3-1.2-4-1.2h-3.5V162z"/>
		<path d="M2287.1,166.8v-16.4l-0.3-3l0.3-1.8h5.4v21.2H2287.1z"/>
		<path d="M2306.9,167.1c-1.5,0-3-0.2-4.4-0.5c-1.4-0.3-2.6-0.9-3.6-1.7c-1-0.8-1.9-1.9-2.5-3.3c-0.6-1.4-0.9-3.2-0.9-5.5
			c0-2.1,0.3-3.9,1-5.3c0.6-1.4,1.5-2.5,2.6-3.3c1.1-0.8,2.3-1.4,3.6-1.7c1.3-0.3,2.6-0.5,4-0.5c1,0,1.8,0.1,2.6,0.1
			c0.7,0.1,1.4,0.2,2.1,0.4l4.1,2.4l-2.1,4.6l-6.6-2.3c-1,0-1.8,0.2-2.7,0.6c-0.8,0.4-1.5,1-2,1.8c-0.5,0.8-0.7,1.9-0.7,3.3
			c0,2.3,0.5,3.8,1.5,4.8c1,0.9,2.4,1.4,4.2,1.4c0.9,0,1.6,0,2.1-0.1c0.5-0.1,0.9-0.2,1.2-0.2v-2.3h-3.8v-4.4h9.5l0.3,1.8l-0.7,2.5
			v6.3c-0.2,0.1-0.7,0.2-1.5,0.4c-0.8,0.2-1.8,0.4-3,0.6C2309.9,167,2308.5,167.1,2306.9,167.1z"/>
		<path d="M2319.6,166.8v-16.4l-0.3-3l0.3-1.8h5.4v21.2H2319.6z"/>
		<path d="M2333.4,166.8v-16.4l-6,0.3v-5.1h17.6v5.1l-6.2-0.3V162l0.3,3l-0.3,1.8H2333.4z"/>
		<path d="M2343.9,166.8l1.4-5.1v-3.8l2.2-0.9l3.9-11.4h7.8l4.8,13.4l2.3,4.3v3.5h-5.3l-1.5-4.8h-8.7l-1.3,4.8H2343.9z
			 M2352.8,157.4h5.1l-2.3-6.9h-0.6L2352.8,157.4z"/>
		<path d="M2369,166.8l-0.6-1.8l0.6-3v-16.4h5.4v12.3l-0.3,4.1h0.6l5.4-0.3l2.1-0.3l2.6,3.5l-1.5,1.9H2369z"/>
		<path d="M2399,166.8v-16.4l-6,0.3v-5.1h17.6v5.1l-6.2-0.3V162l0.3,3l-0.3,1.8H2399z"/>
		<path d="M2422.1,167.1c-1.3,0-2.5-0.2-3.7-0.5c-1.2-0.3-2.3-0.9-3.3-1.7c-1-0.8-1.7-1.9-2.3-3.3c-0.6-1.4-0.9-3.2-0.9-5.5
			c0-2.2,0.3-4,0.9-5.5c0.6-1.4,1.3-2.5,2.3-3.3c1-0.8,2.1-1.4,3.3-1.7c1.2-0.3,2.5-0.5,3.7-0.5c1.3,0,2.5,0.2,3.7,0.5
			c1.2,0.3,2.3,0.9,3.3,1.7c1,0.8,1.7,1.9,2.3,3.3c0.6,1.4,0.9,3.2,0.9,5.4c0,2.2-0.3,4-0.9,5.4c-0.6,1.4-1.3,2.5-2.3,3.3
			c-1,0.8-2.1,1.4-3.3,1.7C2424.6,166.9,2423.3,167.1,2422.1,167.1z M2422.1,162c1.5,0,2.6-0.4,3.4-1.3c0.8-0.9,1.1-2.4,1.1-4.5
			c0-2.1-0.4-3.6-1.1-4.5c-0.8-0.9-1.9-1.3-3.4-1.3c-1.5,0-2.6,0.4-3.3,1.4c-0.8,0.9-1.1,2.4-1.1,4.5c0,2.1,0.4,3.6,1.1,4.5
			C2419.5,161.5,2420.6,162,2422.1,162z"/>
		<path d="M2444.3,167.1c-3.1,0-5.4-0.7-6.9-2.1s-2.3-3.7-2.3-6.8v-7.8l0-3l0-1.8h5.5v12c0,1.4,0.3,2.5,0.8,3.4
			c0.6,0.9,1.5,1.3,3,1.3c1.4,0,2.4-0.4,3-1.2s0.9-2,0.9-3.5v-12h5.4v12.6c0,3.1-0.8,5.3-2.3,6.8
			C2449.8,166.4,2447.5,167.1,2444.3,167.1z"/>
		<path d="M2457.8,166.8v-16.4l-0.6-3l0.6-1.8h9.6c1.5,0,2.8,0.2,3.9,0.7c1.2,0.4,2.1,1.2,2.8,2.3c0.7,1.1,1,2.5,1,4.4
			c0,1.7-0.3,3.1-0.9,4.1c-0.6,1-1.5,1.8-2.6,2.4l0.3,0.3l3,3.7l1.7,1.5v1.8h-6.8l-4.2-6.4h-2.5v1.6l0.3,3l-0.3,1.8H2457.8z
			 M2463.2,155.7h2.9c1,0,1.9-0.2,2.5-0.6c0.6-0.4,0.9-1.1,0.9-2.2c0-0.7-0.2-1.3-0.5-1.7s-0.7-0.6-1.2-0.7
			c-0.5-0.1-1.1-0.2-1.8-0.2h-3.1L2463.2,155.7z"/>
		<path d="M1513.6,202.8v-9.7l-1.6-3l1.6-1.4c-0.1-0.3-0.2-0.8-0.2-1.4c0-0.6-0.1-1-0.1-1.4c0-1.1,0.3-2.1,0.8-3
			c0.5-0.9,1.3-1.5,2.2-2c0.9-0.5,2-0.7,3.2-0.7c0.6,0,1.2,0,1.8,0.1c0.6,0.1,1.2,0.1,1.6,0.3l3.2,1.8l-2.3,4.2l-3.5-2.1
			c-0.7,0-1.2,0.2-1.5,0.7c-0.3,0.5-0.5,1-0.5,1.6c0,0.4,0.1,0.8,0.2,1.2c0.1,0.3,0.3,0.6,0.4,0.8h4.8v3.6h-4.8v5.7l0.3,3l-0.3,1.8
			H1513.6z"/>
		<path d="M1530.6,203.1c-1.2,0-2.1-0.2-2.8-0.7s-1.1-1.1-1.3-2c-0.3-0.9-0.4-1.9-0.4-3.1v-8.7h5.4v7.9c0,0.7,0.1,1.3,0.4,1.7
			c0.3,0.4,0.7,0.6,1.3,0.6c0.5,0,1-0.2,1.5-0.7c0.4-0.5,0.7-1.1,0.7-2v-7.6h5.4v9.4l0.6,3l-0.6,1.8h-5.1v-1.5l-0.3-0.2
			c-0.3,0.3-0.6,0.5-1.1,0.8s-1,0.6-1.7,0.8S1531.3,203.1,1530.6,203.1z"/>
		<path d="M1549.5,203.1c-1.4,0-2.5-0.4-3.3-1.2c-0.8-0.8-1.2-1.8-1.2-3v-6.5h-2.2v-2.9l1.9-1.5l2.1-3.7h3.5v4.3h4.2v3.9h-4.2v6.4
			l4.2,0v3.3c-0.9,0.3-1.8,0.5-2.6,0.7C1551.2,203,1550.4,203.1,1549.5,203.1z"/>
		<path d="M1561.1,203.1c-1.2,0-2.1-0.2-2.8-0.7s-1.1-1.1-1.3-2c-0.3-0.9-0.4-1.9-0.4-3.1v-8.7h5.4v7.9c0,0.7,0.1,1.3,0.4,1.7
			c0.3,0.4,0.7,0.6,1.3,0.6c0.5,0,1-0.2,1.5-0.7c0.4-0.5,0.7-1.1,0.7-2v-7.6h5.4v9.4l0.6,3l-0.6,1.8h-5.1v-1.5l-0.3-0.2
			c-0.3,0.3-0.6,0.5-1.1,0.8s-1,0.6-1.7,0.8S1561.9,203.1,1561.1,203.1z"/>
		<path d="M1574.9,202.8v-9.4l-0.6-3l0.6-1.8h4.1l0.6,0.7c0.6-0.3,1.1-0.6,1.6-0.8c0.5-0.2,1.1-0.2,1.8-0.2c0.4,0,0.8,0,1.2,0.1
			c0.4,0.1,0.7,0.1,0.9,0.2l2,1.7l-2,3.8l-4-1.7l-0.9,0.3v10H1574.9z"/>
		<path d="M1594.8,203.1c-1.5,0-2.9-0.2-4.1-0.7c-1.2-0.5-2.1-1.2-2.8-2.3c-0.7-1.1-1-2.5-1-4.4c0-1.3,0.2-2.4,0.7-3.4
			c0.5-0.9,1.1-1.7,1.8-2.3c0.8-0.6,1.6-1,2.5-1.3c0.9-0.3,1.9-0.4,2.9-0.4c1.7,0,3,0.2,4,0.5c0.9,0.3,1.5,0.6,1.8,0.8l1.5,4.8
			l-0.6,1.9h-9.3c0.1,0.7,0.5,1.4,1.1,1.9c0.6,0.5,1.6,0.8,3,0.8c1.1,0,2-0.1,2.8-0.4c0.8-0.2,1.4-0.5,1.8-0.6v4
			c-0.6,0.3-1.5,0.6-2.6,0.8C1597.2,203,1596,203.1,1594.8,203.1z M1592.3,194.4l4.1-0.6l-0.3-1.3c-0.1-0.1-0.3-0.1-0.6-0.2
			s-0.5-0.1-0.7-0.1c-0.6,0-1,0.1-1.4,0.4c-0.4,0.2-0.7,0.5-0.8,0.9S1592.3,194.1,1592.3,194.4z"/>
		<path d="M1611.9,202.8v-16.4l-0.6-3l0.6-1.8h5.4v4.9l-0.3,3.3l0.3,0.1c0.2-0.4,0.7-0.7,1.3-1.1c0.6-0.3,1.5-0.5,2.6-0.5
			c1.8,0,3.1,0.5,4,1.5c0.9,1,1.4,2.5,1.4,4.3v3.9l0.6,2.9l-0.6,1.8h-5.4v-7.9c0-0.8-0.2-1.3-0.5-1.8s-0.8-0.6-1.5-0.6l-1.9,0.9v9.4
			H1611.9z"/>
		<path d="M1632.8,187.8l-3.8-3.8l3.8-3.8l3.8,3.8L1632.8,187.8z M1630.1,202.8v-9.9l-0.6-2.4l0.6-1.8h5.4v14.2H1630.1z"/>
		<path d="M1644.7,203.1c-1.5,0-2.8-0.1-3.9-0.5c-1.1-0.3-2-0.6-2.6-0.9v-4.2c0.8,0.4,1.7,0.6,2.5,0.8c0.9,0.2,1.7,0.3,2.4,0.4
			c0.7,0.1,1.2,0.1,1.5,0.1c0.3,0,0.6-0.1,0.7-0.2c0.1-0.1,0.2-0.2,0.2-0.4c0-0.2-0.2-0.4-0.5-0.6c-0.4-0.1-1-0.3-2-0.6
			c-0.8-0.2-1.6-0.5-2.4-0.8c-0.8-0.3-1.4-0.7-1.9-1.3s-0.7-1.3-0.7-2.2c0-1.2,0.3-2.1,0.8-2.7s1.3-1.1,2.3-1.4
			c1-0.3,2.2-0.4,3.5-0.4c0.8,0,1.5,0,2.1,0.1c0.7,0.1,1.1,0.1,1.4,0.2l2.8,1.8l-1.4,3.2l-5.2-1.1c-0.6,0-1,0.2-1,0.6
			c0,0.4,0.5,0.8,1.4,1c0.7,0.2,1.5,0.3,2.2,0.5c0.8,0.2,1.5,0.4,2.1,0.7c0.6,0.3,1.1,0.7,1.5,1.2c0.4,0.5,0.6,1.2,0.6,2
			c0,1.5-0.5,2.7-1.6,3.4C1648.4,202.7,1646.8,203.1,1644.7,203.1z"/>
		<path d="M1659,203.1c-1.4,0-2.5-0.4-3.3-1.2c-0.8-0.8-1.2-1.8-1.2-3v-6.5h-2.2v-2.9l1.9-1.5l2.1-3.7h3.5v4.3h4.2v3.9h-4.2v6.4
			l4.2,0v3.3c-0.9,0.3-1.8,0.5-2.6,0.7C1660.8,203,1659.9,203.1,1659,203.1z"/>
		<path d="M1673.4,203.1c-2.4,0-4.3-0.6-5.7-1.7c-1.3-1.2-2-3-2-5.6c0-2.6,0.7-4.5,2-5.7c1.3-1.1,3.2-1.7,5.7-1.7
			c2.5,0,4.4,0.6,5.7,1.7c1.3,1.2,1.9,3,1.9,5.7c0,2.6-0.6,4.5-1.9,5.6C1677.8,202.5,1675.9,203.1,1673.4,203.1z M1673.4,199.2
			c0.8,0,1.4-0.3,1.7-0.9c0.3-0.6,0.5-1.5,0.5-2.6c0-1.1-0.2-2-0.5-2.6c-0.3-0.6-0.9-0.9-1.7-0.9c-0.8,0-1.4,0.3-1.8,0.9
			c-0.3,0.6-0.5,1.5-0.5,2.6c0,1.1,0.2,2,0.5,2.6C1672,198.9,1672.6,199.2,1673.4,199.2z"/>
		<path d="M1683.6,202.8v-9.4l-0.6-3l0.6-1.8h4.1l0.6,0.7c0.6-0.3,1.1-0.6,1.6-0.8c0.5-0.2,1.1-0.2,1.8-0.2c0.4,0,0.8,0,1.2,0.1
			c0.4,0.1,0.7,0.1,0.9,0.2l2,1.7l-2,3.8l-4-1.7l-0.9,0.3v10H1683.6z"/>
		<path d="M1700.3,187.8l-3.8-3.8l3.8-3.8l3.8,3.8L1700.3,187.8z M1697.6,202.8v-9.9l-0.6-2.4l0.6-1.8h5.4v14.2H1697.6z"/>
		<path d="M1713.2,203.1c-1.5,0-2.9-0.2-4.1-0.7s-2.1-1.2-2.8-2.3s-1-2.5-1-4.4c0-1.3,0.2-2.4,0.7-3.4s1.1-1.7,1.8-2.3
			c0.8-0.6,1.6-1,2.5-1.3c0.9-0.3,1.9-0.4,2.9-0.4c1.7,0,3,0.2,4,0.5c0.9,0.3,1.5,0.6,1.8,0.8l1.5,4.8l-0.6,1.9h-9.3
			c0.1,0.7,0.5,1.4,1.1,1.9c0.6,0.5,1.6,0.8,3,0.8c1.1,0,2-0.1,2.8-0.4c0.8-0.2,1.4-0.5,1.8-0.6v4c-0.6,0.3-1.5,0.6-2.6,0.8
			S1714.4,203.1,1713.2,203.1z M1710.7,194.4l4.1-0.6l-0.3-1.3c-0.1-0.1-0.3-0.1-0.6-0.2c-0.3,0-0.5-0.1-0.7-0.1
			c-0.6,0-1,0.1-1.4,0.4s-0.6,0.5-0.8,0.9S1710.7,194.1,1710.7,194.4z"/>
		<path d="M1728.9,203.1c-1.5,0-2.8-0.1-3.9-0.5c-1.1-0.3-2-0.6-2.6-0.9v-4.2c0.8,0.4,1.7,0.6,2.5,0.8c0.9,0.2,1.7,0.3,2.4,0.4
			s1.2,0.1,1.5,0.1c0.3,0,0.6-0.1,0.7-0.2c0.1-0.1,0.2-0.2,0.2-0.4c0-0.2-0.2-0.4-0.5-0.6c-0.4-0.1-1-0.3-2-0.6
			c-0.8-0.2-1.6-0.5-2.4-0.8c-0.8-0.3-1.4-0.7-1.9-1.3s-0.7-1.3-0.7-2.2c0-1.2,0.3-2.1,0.8-2.7s1.3-1.1,2.3-1.4
			c1-0.3,2.2-0.4,3.5-0.4c0.8,0,1.5,0,2.1,0.1s1.1,0.1,1.4,0.2l2.8,1.8l-1.4,3.2l-5.2-1.1c-0.6,0-1,0.2-1,0.6c0,0.4,0.5,0.8,1.4,1
			c0.7,0.2,1.5,0.3,2.2,0.5c0.8,0.2,1.5,0.4,2.1,0.7s1.1,0.7,1.5,1.2c0.4,0.5,0.6,1.2,0.6,2c0,1.5-0.5,2.7-1.6,3.4
			S1731,203.1,1728.9,203.1z"/>
		<path d="M1751.1,203.1c-1.5,0-2.8-0.1-3.9-0.5c-1.1-0.3-2-0.6-2.6-0.9v-4.2c0.8,0.4,1.7,0.6,2.5,0.8c0.9,0.2,1.7,0.3,2.4,0.4
			s1.2,0.1,1.5,0.1c0.3,0,0.6-0.1,0.7-0.2c0.1-0.1,0.2-0.2,0.2-0.4c0-0.2-0.2-0.4-0.5-0.6c-0.4-0.1-1-0.3-2-0.6
			c-0.8-0.2-1.6-0.5-2.4-0.8c-0.8-0.3-1.4-0.7-1.9-1.3s-0.7-1.3-0.7-2.2c0-1.2,0.3-2.1,0.8-2.7s1.3-1.1,2.3-1.4
			c1-0.3,2.2-0.4,3.5-0.4c0.8,0,1.5,0,2.1,0.1s1.1,0.1,1.4,0.2l2.8,1.8l-1.4,3.2l-5.2-1.1c-0.6,0-1,0.2-1,0.6c0,0.4,0.5,0.8,1.4,1
			c0.7,0.2,1.5,0.3,2.2,0.5c0.8,0.2,1.5,0.4,2.1,0.7s1.1,0.7,1.5,1.2c0.4,0.5,0.6,1.2,0.6,2c0,1.5-0.5,2.7-1.6,3.4
			S1753.2,203.1,1751.1,203.1z"/>
		<path d="M1765.5,203.1c-1.4,0-2.5-0.4-3.3-1.2c-0.8-0.8-1.2-1.8-1.2-3v-6.5h-2.2v-2.9l1.9-1.5l2.1-3.7h3.5v4.3h4.2v3.9h-4.2v6.4
			l4.2,0v3.3c-0.9,0.3-1.8,0.5-2.5,0.7C1767.2,203,1766.4,203.1,1765.5,203.1z"/>
		<path d="M1777.1,203.1c-1.2,0-2.1-0.2-2.8-0.7c-0.7-0.5-1.1-1.1-1.3-2c-0.3-0.9-0.4-1.9-0.4-3.1v-8.7h5.4v7.9
			c0,0.7,0.1,1.3,0.4,1.7c0.3,0.4,0.7,0.6,1.3,0.6c0.5,0,1-0.2,1.5-0.7s0.7-1.1,0.7-2v-7.6h5.4v9.4l0.6,3l-0.6,1.8h-5.1v-1.5
			l-0.3-0.2c-0.3,0.3-0.6,0.5-1.1,0.8c-0.5,0.3-1,0.6-1.7,0.8C1778.5,203,1777.8,203.1,1777.1,203.1z"/>
		<path d="M1795.5,203.1c-0.9,0-1.8-0.2-2.7-0.7c-0.9-0.5-1.6-1.2-2.1-2.3c-0.6-1-0.8-2.4-0.8-4.1c0-1.9,0.3-3.3,0.8-4.5
			c0.5-1.1,1.3-1.9,2.1-2.4c0.9-0.5,1.8-0.8,2.7-0.8c1.4,0,2.7,0.2,3.9,0.7l-0.3-5.7l0.3-1.8h5.4V198l0.6,3l-0.6,1.8h-5.1v-1.5
			l-0.3-0.1c-0.6,0.6-1.2,1.1-1.8,1.4C1797,202.9,1796.3,203.1,1795.5,203.1z M1797.7,198.9l1.6-0.4v-4.4c0-0.5-0.1-0.8-0.4-1.1
			c-0.3-0.3-0.7-0.4-1.2-0.4c-0.7,0-1.3,0.2-1.7,0.7c-0.4,0.5-0.6,1.3-0.6,2.4c0,1.1,0.2,1.9,0.7,2.4
			C1796.6,198.6,1797.1,198.9,1797.7,198.9z"/>
		<path d="M1811.1,187.8l-3.8-3.8l3.8-3.8l3.8,3.8L1811.1,187.8z M1808.4,202.8v-9.9l-0.6-2.4l0.6-1.8h5.4v14.2H1808.4z"/>
		<path d="M1823.8,203.1c-2.4,0-4.3-0.6-5.7-1.7c-1.3-1.2-2-3-2-5.6c0-2.6,0.7-4.5,2-5.7c1.3-1.1,3.2-1.7,5.7-1.7
			c2.5,0,4.4,0.6,5.7,1.7c1.3,1.2,1.9,3,1.9,5.7c0,2.6-0.6,4.5-1.9,5.6C1828.2,202.5,1826.3,203.1,1823.8,203.1z M1823.8,199.2
			c0.8,0,1.4-0.3,1.7-0.9c0.3-0.6,0.5-1.5,0.5-2.6c0-1.1-0.2-2-0.5-2.6c-0.3-0.6-0.9-0.9-1.7-0.9c-0.8,0-1.4,0.3-1.8,0.9
			c-0.3,0.6-0.5,1.5-0.5,2.6c0,1.1,0.2,2,0.5,2.6S1823,199.2,1823.8,199.2z"/>
		<path d="M1837,194.7l-3.3-3.3l3.3-3.3l3.3,3.3L1837,194.7z M1837,203.7l-3.3-3.3l3.3-3.3l3.3,3.3L1837,203.7z"/>
		<path d="M1850.8,202.8v-9.4l-0.6-3l0.6-1.8h4.1l0.6,0.7c0.6-0.3,1.1-0.6,1.6-0.8s1.1-0.2,1.8-0.2c0.4,0,0.8,0,1.2,0.1
			c0.4,0.1,0.7,0.1,0.9,0.2l2,1.7l-2,3.8l-4-1.7l-0.9,0.3v10H1850.8z"/>
		<path d="M1870.8,203.1c-1.5,0-2.9-0.2-4.1-0.7s-2.1-1.2-2.8-2.3s-1-2.5-1-4.4c0-1.3,0.2-2.4,0.7-3.4s1.1-1.7,1.8-2.3
			c0.8-0.6,1.6-1,2.5-1.3c0.9-0.3,1.9-0.4,2.9-0.4c1.7,0,3,0.2,4,0.5c0.9,0.3,1.5,0.6,1.8,0.8l1.5,4.8l-0.6,1.9h-9.3
			c0.1,0.7,0.5,1.4,1.1,1.9c0.6,0.5,1.6,0.8,3,0.8c1.1,0,2-0.1,2.8-0.4c0.8-0.2,1.4-0.5,1.8-0.6v4c-0.6,0.3-1.5,0.6-2.6,0.8
			S1872,203.1,1870.8,203.1z M1868.2,194.4l4.1-0.6l-0.3-1.3c-0.1-0.1-0.3-0.1-0.6-0.2c-0.3,0-0.5-0.1-0.7-0.1c-0.6,0-1,0.1-1.4,0.4
			s-0.6,0.5-0.8,0.9S1868.2,194.1,1868.2,194.4z"/>
		<path d="M1883.5,202.8l-3.8-10.3l-0.6-3.9h5.7l1.7,9.4h0.6l1.7-9.4h5.7l-0.6,3.9l-4,10.3H1883.5z"/>
		<path d="M1902.8,203.1c-1.5,0-2.9-0.2-4.1-0.7s-2.1-1.2-2.8-2.3s-1-2.5-1-4.4c0-1.3,0.2-2.4,0.7-3.4s1.1-1.7,1.8-2.3
			c0.8-0.6,1.6-1,2.5-1.3c0.9-0.3,1.9-0.4,2.9-0.4c1.7,0,3,0.2,4,0.5c0.9,0.3,1.5,0.6,1.8,0.8l1.5,4.8l-0.6,1.9h-9.3
			c0.1,0.7,0.5,1.4,1.1,1.9c0.6,0.5,1.6,0.8,3,0.8c1.1,0,2-0.1,2.8-0.4c0.8-0.2,1.4-0.5,1.8-0.6v4c-0.6,0.3-1.5,0.6-2.6,0.8
			S1904,203.1,1902.8,203.1z M1900.2,194.4l4.1-0.6l-0.3-1.3c-0.1-0.1-0.3-0.1-0.6-0.2c-0.3,0-0.5-0.1-0.7-0.1c-0.6,0-1,0.1-1.4,0.4
			s-0.6,0.5-0.8,0.9S1900.3,194.1,1900.2,194.4z"/>
		<path d="M1916.5,203.1c-0.9,0-1.7-0.1-2.4-0.4c-0.7-0.2-1.3-0.7-1.8-1.3c-0.4-0.6-0.7-1.5-0.7-2.6c0-1,0.2-1.8,0.8-2.5
			c0.5-0.7,1.2-1.1,2-1.5c0.9-0.3,1.8-0.5,2.9-0.5c1,0,1.8,0.1,2.3,0.3c0.5,0.2,1,0.5,1.3,0.7l0.2-0.2c0-0.6,0-1.1-0.2-1.5
			c-0.1-0.4-0.3-0.7-0.7-0.9c-0.4-0.2-0.9-0.3-1.7-0.3c-0.7,0-1.5,0.1-2.4,0.2c-0.8,0.1-1.6,0.3-2.3,0.5c-0.7,0.2-1.2,0.4-1.5,0.6
			v-4.5c0.6-0.2,1.5-0.4,2.7-0.6c1.1-0.2,2.6-0.3,4.2-0.3c1.8,0,3.2,0.2,4.3,0.7c1.1,0.5,1.8,1.1,2.3,2c0.5,0.8,0.7,1.9,0.7,3v4
			l0.6,3l-0.6,1.8h-5.1v-1.5l-0.3-0.1c-0.2,0.2-0.4,0.4-0.8,0.7c-0.4,0.3-0.9,0.6-1.6,0.8S1917.5,203.1,1916.5,203.1z M1919.1,199.2
			c0.5,0,1,0,1.4-0.2c0.4-0.1,0.7-0.2,0.9-0.3v-0.6c0-0.3-0.2-0.5-0.6-0.8c-0.4-0.2-0.9-0.4-1.7-0.4c-1.1,0-1.6,0.4-1.6,1.1
			c0,0.3,0.1,0.6,0.4,0.7S1918.5,199.2,1919.1,199.2z"/>
		<path d="M1930.4,202.8l0-16.4l-0.6-3l0.6-1.8h5.4v21.2H1930.4z"/>
		<path d="M1942.1,187.8l-3.8-3.8l3.8-3.8l3.8,3.8L1942.1,187.8z M1939.4,202.8v-9.9l-0.6-2.4l0.6-1.8h5.4v14.2H1939.4z"/>
		<path d="M1948.2,202.8v-9l-0.6-3.3l0.9-1.8h4.5v1.3l0.3,0.2c0.2-0.2,0.5-0.4,0.9-0.7c0.4-0.3,0.9-0.5,1.4-0.7
			c0.6-0.2,1.2-0.3,1.9-0.3c1.8,0,3.2,0.5,4.1,1.5c0.9,1,1.3,2.5,1.3,4.3v3.8l0.6,3l-0.6,1.8h-5.4v-7.9c0-0.8-0.2-1.3-0.5-1.8
			c-0.3-0.4-0.8-0.6-1.5-0.6l-1.9,0.6v9.7H1948.2z"/>
		<path d="M1972.2,210.1c-0.5,0-1.1,0-1.7,0s-1.2-0.1-1.6-0.1l-3.7-1.8l1.5-3.9l4.7,1.5c2.7,0,4-1.1,4-3.3v-0.6l-0.3-0.1
			c-0.3,0.3-0.7,0.6-1.3,0.9c-0.6,0.3-1.6,0.4-2.9,0.4c-0.9,0-1.9-0.2-2.7-0.7s-1.6-1.2-2.1-2.3c-0.6-1-0.8-2.4-0.8-4
			c0-1.9,0.3-3.4,0.8-4.5s1.3-2,2.1-2.5c0.9-0.5,1.8-0.8,2.7-0.8c1,0,1.9,0.1,2.6,0.4c0.7,0.3,1.1,0.6,1.3,0.9v-1h5.4l0.3,1.8
			l-0.3,1.8l0,10.6c0,1.7-0.3,3.1-1,4.2c-0.7,1.1-1.6,1.9-2.8,2.4S1973.9,210.1,1972.2,210.1z M1973.3,198.8c0.4,0,0.7,0,1-0.1
			c0.3-0.1,0.5-0.2,0.7-0.3v-5.6c-0.1-0.1-0.2-0.1-0.4-0.2c-0.2-0.1-0.5-0.1-0.9-0.1c-0.8,0-1.4,0.2-1.9,0.8s-0.7,1.3-0.7,2.4
			c0,1.1,0.2,1.9,0.7,2.4C1972.1,198.5,1972.6,198.8,1973.3,198.8z"/>
		<path d="M1996,203.1c-1.4,0-2.5-0.4-3.3-1.2c-0.8-0.8-1.2-1.8-1.2-3v-6.5h-2.2v-2.9l1.9-1.5l2.1-3.7h3.5v4.3h4.2v3.9h-4.2v6.4
			l4.2,0v3.3c-0.9,0.3-1.8,0.5-2.5,0.7C1997.8,203,1997,203.1,1996,203.1z"/>
		<path d="M2003.8,202.8v-16.4l-0.6-3l0.6-1.8h5.4v4.9l-0.3,3.3l0.3,0.1c0.2-0.4,0.7-0.7,1.3-1.1c0.6-0.3,1.5-0.5,2.6-0.5
			c1.8,0,3.2,0.5,4.1,1.5c0.9,1,1.3,2.5,1.3,4.3v3.9l0.6,2.9l-0.6,1.8h-5.4v-7.9c0-0.8-0.2-1.3-0.5-1.8c-0.3-0.4-0.8-0.6-1.5-0.6
			l-1.9,0.9v9.4H2003.8z"/>
		<path d="M2028.9,203.1c-1.5,0-2.9-0.2-4.1-0.7s-2.1-1.2-2.8-2.3s-1-2.5-1-4.4c0-1.3,0.2-2.4,0.7-3.4s1.1-1.7,1.8-2.3
			c0.8-0.6,1.6-1,2.5-1.3c0.9-0.3,1.9-0.4,2.9-0.4c1.7,0,3,0.2,4,0.5c0.9,0.3,1.5,0.6,1.8,0.8l1.5,4.8l-0.6,1.9h-9.3
			c0.1,0.7,0.5,1.4,1.1,1.9c0.6,0.5,1.6,0.8,3,0.8c1.1,0,2-0.1,2.8-0.4c0.8-0.2,1.4-0.5,1.8-0.6v4c-0.6,0.3-1.5,0.6-2.6,0.8
			S2030.1,203.1,2028.9,203.1z M2026.4,194.4l4.1-0.6l-0.3-1.3c-0.1-0.1-0.3-0.1-0.6-0.2c-0.3,0-0.5-0.1-0.7-0.1
			c-0.6,0-1,0.1-1.4,0.4s-0.6,0.5-0.8,0.9S2026.4,194.1,2026.4,194.4z"/>
		<path d="M2046,210.1v-16.3l-0.6-3.3l0.9-1.8h4.5v1.3l0.3,0.2c0.7-0.6,1.4-1,2-1.3s1.4-0.4,2.2-0.4c1.8,0,3.2,0.6,4.2,1.7
			c1,1.1,1.5,2.9,1.5,5.4c0,1.8-0.3,3.3-0.8,4.5c-0.5,1.1-1.2,1.9-2.1,2.4s-1.8,0.8-2.9,0.8c-1.4,0-2.8-0.2-3.9-0.7v7.7H2046z
			 M2052.7,198.9c0.8,0,1.4-0.3,1.8-0.8s0.7-1.4,0.7-2.5c0-1.1-0.2-1.9-0.6-2.4s-0.9-0.8-1.7-0.8l-1.7,0.6v5.4
			C2051.8,198.8,2052.2,198.9,2052.7,198.9z"/>
		<path d="M2067.4,203.1c-0.9,0-1.7-0.1-2.4-0.4c-0.7-0.2-1.3-0.7-1.8-1.3c-0.4-0.6-0.7-1.5-0.7-2.6c0-1,0.2-1.8,0.8-2.5
			c0.5-0.7,1.2-1.1,2-1.5c0.9-0.3,1.8-0.5,2.9-0.5c1,0,1.8,0.1,2.3,0.3c0.5,0.2,1,0.5,1.3,0.7l0.2-0.2c0-0.6,0-1.1-0.2-1.5
			c-0.1-0.4-0.3-0.7-0.7-0.9c-0.4-0.2-0.9-0.3-1.7-0.3c-0.7,0-1.5,0.1-2.4,0.2c-0.8,0.1-1.6,0.3-2.3,0.5c-0.7,0.2-1.2,0.4-1.5,0.6
			v-4.5c0.6-0.2,1.5-0.4,2.7-0.6c1.1-0.2,2.6-0.3,4.2-0.3c1.8,0,3.2,0.2,4.3,0.7c1.1,0.5,1.8,1.1,2.3,2c0.5,0.8,0.7,1.9,0.7,3v4
			l0.6,3l-0.6,1.8h-5.1v-1.5l-0.3-0.1c-0.2,0.2-0.4,0.4-0.8,0.7c-0.4,0.3-0.9,0.6-1.6,0.8S2068.4,203.1,2067.4,203.1z M2070,199.2
			c0.5,0,1,0,1.4-0.2c0.4-0.1,0.7-0.2,0.9-0.3v-0.6c0-0.3-0.2-0.5-0.6-0.8c-0.4-0.2-0.9-0.4-1.7-0.4c-1.1,0-1.6,0.4-1.6,1.1
			c0,0.3,0.1,0.6,0.4,0.7S2069.4,199.2,2070,199.2z"/>
		<path d="M2087.1,203.1c-1.5,0-2.8-0.1-3.9-0.5c-1.1-0.3-2-0.6-2.6-0.9v-4.2c0.8,0.4,1.7,0.6,2.5,0.8c0.9,0.2,1.7,0.3,2.4,0.4
			s1.2,0.1,1.5,0.1c0.3,0,0.6-0.1,0.7-0.2c0.1-0.1,0.2-0.2,0.2-0.4c0-0.2-0.2-0.4-0.5-0.6c-0.4-0.1-1-0.3-2-0.6
			c-0.8-0.2-1.6-0.5-2.4-0.8c-0.8-0.3-1.4-0.7-1.9-1.3s-0.7-1.3-0.7-2.2c0-1.2,0.3-2.1,0.8-2.7s1.3-1.1,2.3-1.4
			c1-0.3,2.2-0.4,3.5-0.4c0.8,0,1.5,0,2.1,0.1s1.1,0.1,1.4,0.2l2.8,1.8l-1.4,3.2l-5.2-1.1c-0.6,0-1,0.2-1,0.6c0,0.4,0.5,0.8,1.4,1
			c0.7,0.2,1.5,0.3,2.2,0.5c0.8,0.2,1.5,0.4,2.1,0.7s1.1,0.7,1.5,1.2c0.4,0.5,0.6,1.2,0.6,2c0,1.5-0.5,2.7-1.6,3.4
			S2089.2,203.1,2087.1,203.1z"/>
		<path d="M2101.5,203.1c-1.4,0-2.5-0.4-3.3-1.2c-0.8-0.8-1.2-1.8-1.2-3v-6.5h-2.2v-2.9l1.9-1.5l2.1-3.7h3.5v4.3h4.2v3.9h-4.2v6.4
			l4.2,0v3.3c-0.9,0.3-1.8,0.5-2.5,0.7C2103.2,203,2102.4,203.1,2101.5,203.1z"/>
		<path d="M2110.8,209.6l-1.1-0.4l1.7-6.4l-2.4-2.4l3.2-3.1l3.8,3.4L2110.8,209.6z"/>
		<path d="M2129,187.8l-3.8-3.8l3.8-3.8l3.8,3.8L2129,187.8z M2126.3,202.8v-9.9l-0.6-2.4l0.6-1.8h5.4v14.2H2126.3z"/>
		<path d="M2134.5,190.5l0.9-1.8h4.5v1.3l0.3,0.2c0.2-0.2,0.5-0.4,0.9-0.7c0.4-0.3,0.9-0.5,1.4-0.7c0.6-0.2,1.2-0.3,1.9-0.3
			c2.1,0,3.6,0.7,4.5,2.1c0.4-0.5,0.9-1,1.6-1.4c0.7-0.4,1.7-0.7,3-0.7c1.8,0,3.2,0.5,4,1.5c0.9,1,1.4,2.5,1.4,4.3v3.8l0.6,3
			l-0.6,1.8h-5.4v-7.9c0-0.8-0.2-1.3-0.5-1.8s-0.8-0.6-1.5-0.6c-0.5,0-0.9,0.2-1.2,0.5s-0.5,0.8-0.5,1.3v8.5h-5.4v-7.9
			c0-0.8-0.2-1.3-0.5-1.8c-0.3-0.4-0.8-0.6-1.5-0.6l-1.9,0.6v9.7h-5.4v-9L2134.5,190.5z"/>
		<path d="M2166.5,203.1c-0.9,0-1.7-0.1-2.4-0.4c-0.7-0.2-1.3-0.7-1.8-1.3c-0.4-0.6-0.7-1.5-0.7-2.6c0-1,0.2-1.8,0.8-2.5
			c0.5-0.7,1.2-1.1,2-1.5c0.9-0.3,1.8-0.5,2.9-0.5c1,0,1.8,0.1,2.3,0.3c0.5,0.2,1,0.5,1.3,0.7l0.2-0.2c0-0.6,0-1.1-0.2-1.5
			c-0.1-0.4-0.3-0.7-0.7-0.9c-0.4-0.2-0.9-0.3-1.7-0.3c-0.7,0-1.5,0.1-2.4,0.2c-0.8,0.1-1.6,0.3-2.3,0.5c-0.7,0.2-1.2,0.4-1.5,0.6
			v-4.5c0.6-0.2,1.5-0.4,2.7-0.6c1.1-0.2,2.6-0.3,4.2-0.3c1.8,0,3.2,0.2,4.3,0.7c1.1,0.5,1.8,1.1,2.3,2c0.5,0.8,0.7,1.9,0.7,3v4
			l0.6,3l-0.6,1.8h-5.1v-1.5l-0.3-0.1c-0.2,0.2-0.4,0.4-0.8,0.7c-0.4,0.3-0.9,0.6-1.6,0.8S2167.4,203.1,2166.5,203.1z M2169,199.2
			c0.5,0,1,0,1.4-0.2c0.4-0.1,0.7-0.2,0.9-0.3v-0.6c0-0.3-0.2-0.5-0.6-0.8c-0.4-0.2-0.9-0.4-1.7-0.4c-1.1,0-1.6,0.4-1.6,1.1
			c0,0.3,0.1,0.6,0.4,0.7S2168.4,199.2,2169,199.2z"/>
		<path d="M2186.2,210.1c-0.5,0-1.1,0-1.7,0s-1.2-0.1-1.6-0.1l-3.7-1.8l1.5-3.9l4.7,1.5c2.7,0,4-1.1,4-3.3v-0.6l-0.3-0.1
			c-0.3,0.3-0.7,0.6-1.3,0.9c-0.6,0.3-1.6,0.4-2.9,0.4c-0.9,0-1.9-0.2-2.7-0.7s-1.6-1.2-2.1-2.3c-0.6-1-0.8-2.4-0.8-4
			c0-1.9,0.3-3.4,0.8-4.5s1.3-2,2.1-2.5c0.9-0.5,1.8-0.8,2.7-0.8c1,0,1.9,0.1,2.6,0.4c0.7,0.3,1.1,0.6,1.3,0.9v-1h5.4l0.3,1.8
			l-0.3,1.8l0,10.6c0,1.7-0.3,3.1-1,4.2c-0.7,1.1-1.6,1.9-2.8,2.4S2187.8,210.1,2186.2,210.1z M2187.2,198.8c0.4,0,0.7,0,1-0.1
			c0.3-0.1,0.5-0.2,0.7-0.3v-5.6c-0.1-0.1-0.2-0.1-0.4-0.2c-0.2-0.1-0.5-0.1-0.9-0.1c-0.8,0-1.4,0.2-1.9,0.8s-0.7,1.3-0.7,2.4
			c0,1.1,0.2,1.9,0.7,2.4C2186,198.5,2186.6,198.8,2187.2,198.8z"/>
		<path d="M2200.3,187.8l-3.8-3.8l3.8-3.8l3.8,3.8L2200.3,187.8z M2197.6,202.8v-9.9l-0.6-2.4l0.6-1.8h5.4v14.2H2197.6z"/>
		<path d="M2206.3,202.8v-9l-0.6-3.3l0.9-1.8h4.5v1.3l0.3,0.2c0.2-0.2,0.5-0.4,0.9-0.7c0.4-0.3,0.9-0.5,1.4-0.7
			c0.6-0.2,1.2-0.3,1.9-0.3c1.8,0,3.2,0.5,4.1,1.5c0.9,1,1.3,2.5,1.3,4.3v3.8l0.6,3l-0.6,1.8h-5.4v-7.9c0-0.8-0.2-1.3-0.5-1.8
			c-0.3-0.4-0.8-0.6-1.5-0.6l-1.9,0.6v9.7H2206.3z"/>
		<path d="M2227.2,187.8l-3.8-3.8l3.8-3.8l3.8,3.8L2227.2,187.8z M2224.5,202.8v-9.9l-0.6-2.4l0.6-1.8h5.4v14.2H2224.5z"/>
		<path d="M2233.3,202.8v-9l-0.6-3.3l0.9-1.8h4.5v1.3l0.3,0.2c0.2-0.2,0.5-0.4,0.9-0.7c0.4-0.3,0.9-0.5,1.4-0.7
			c0.6-0.2,1.2-0.3,1.9-0.3c1.8,0,3.2,0.5,4.1,1.5c0.9,1,1.3,2.5,1.3,4.3v3.8l0.6,3l-0.6,1.8h-5.4v-7.9c0-0.8-0.2-1.3-0.5-1.8
			c-0.3-0.4-0.8-0.6-1.5-0.6l-1.9,0.6v9.7H2233.3z"/>
		<path d="M2257.4,210.1c-0.5,0-1.1,0-1.7,0s-1.2-0.1-1.6-0.1l-3.7-1.8l1.5-3.9l4.7,1.5c2.7,0,4-1.1,4-3.3v-0.6l-0.3-0.1
			c-0.3,0.3-0.7,0.6-1.3,0.9c-0.6,0.3-1.6,0.4-2.9,0.4c-0.9,0-1.9-0.2-2.7-0.7s-1.6-1.2-2.1-2.3c-0.6-1-0.8-2.4-0.8-4
			c0-1.9,0.3-3.4,0.8-4.5s1.3-2,2.1-2.5c0.9-0.5,1.8-0.8,2.7-0.8c1,0,1.9,0.1,2.6,0.4c0.7,0.3,1.1,0.6,1.3,0.9v-1h5.4l0.3,1.8
			l-0.3,1.8l0,10.6c0,1.7-0.3,3.1-1,4.2c-0.7,1.1-1.6,1.9-2.8,2.4S2259,210.1,2257.4,210.1z M2258.4,198.8c0.4,0,0.7,0,1-0.1
			c0.3-0.1,0.5-0.2,0.7-0.3v-5.6c-0.1-0.1-0.2-0.1-0.4-0.2c-0.2-0.1-0.5-0.1-0.9-0.1c-0.8,0-1.4,0.2-1.9,0.8s-0.7,1.3-0.7,2.4
			c0,1.1,0.2,1.9,0.7,2.4C2257.3,198.5,2257.8,198.8,2258.4,198.8z"/>
		<path d="M2281.2,203.1c-1.4,0-2.5-0.4-3.3-1.2c-0.8-0.8-1.2-1.8-1.2-3v-6.5h-2.2v-2.9l1.9-1.5l2.1-3.7h3.5v4.3h4.2v3.9h-4.2v6.4
			l4.2,0v3.3c-0.9,0.3-1.8,0.5-2.5,0.7C2282.9,203,2282.1,203.1,2281.2,203.1z"/>
		<path d="M2289,202.8v-16.4l-0.6-3l0.6-1.8h5.4v4.9l-0.3,3.3l0.3,0.1c0.2-0.4,0.7-0.7,1.3-1.1c0.6-0.3,1.5-0.5,2.6-0.5
			c1.8,0,3.2,0.5,4.1,1.5c0.9,1,1.3,2.5,1.3,4.3v3.9l0.6,2.9l-0.6,1.8h-5.4v-7.9c0-0.8-0.2-1.3-0.5-1.8c-0.3-0.4-0.8-0.6-1.5-0.6
			l-1.9,0.9v9.4H2289z"/>
		<path d="M2314.1,203.1c-1.5,0-2.9-0.2-4.1-0.7s-2.1-1.2-2.8-2.3s-1-2.5-1-4.4c0-1.3,0.2-2.4,0.7-3.4s1.1-1.7,1.8-2.3
			c0.8-0.6,1.6-1,2.5-1.3c0.9-0.3,1.9-0.4,2.9-0.4c1.7,0,3,0.2,4,0.5c0.9,0.3,1.5,0.6,1.8,0.8l1.5,4.8l-0.6,1.9h-9.3
			c0.1,0.7,0.5,1.4,1.1,1.9c0.6,0.5,1.6,0.8,3,0.8c1.1,0,2-0.1,2.8-0.4c0.8-0.2,1.4-0.5,1.8-0.6v4c-0.6,0.3-1.5,0.6-2.6,0.8
			S2315.3,203.1,2314.1,203.1z M2311.5,194.4l4.1-0.6l-0.3-1.3c-0.1-0.1-0.3-0.1-0.6-0.2c-0.3,0-0.5-0.1-0.7-0.1
			c-0.6,0-1,0.1-1.4,0.4s-0.6,0.5-0.8,0.9S2311.5,194.1,2311.5,194.4z"/>
		<path d="M2331.5,202.8v-9.7l-1.6-3l1.6-1.4c-0.1-0.3-0.2-0.8-0.2-1.4c0-0.6-0.1-1-0.1-1.4c0-1.1,0.3-2.1,0.8-3
			c0.5-0.9,1.3-1.5,2.2-2c0.9-0.5,2-0.7,3.2-0.7c0.6,0,1.2,0,1.8,0.1c0.6,0.1,1.2,0.1,1.6,0.3l3.2,1.8l-2.3,4.2l-3.4-2.1
			c-0.7,0-1.2,0.2-1.5,0.7c-0.3,0.5-0.5,1-0.5,1.6c0,0.4,0.1,0.8,0.2,1.2c0.1,0.3,0.3,0.6,0.4,0.8h4.8v3.6h-4.8v5.7l0.3,3l-0.3,1.8
			H2331.5z"/>
		<path d="M2348.5,203.1c-1.2,0-2.1-0.2-2.8-0.7c-0.7-0.5-1.1-1.1-1.3-2c-0.3-0.9-0.4-1.9-0.4-3.1v-8.7h5.4v7.9
			c0,0.7,0.1,1.3,0.4,1.7c0.3,0.4,0.7,0.6,1.3,0.6c0.5,0,1-0.2,1.5-0.7s0.7-1.1,0.7-2v-7.6h5.4v9.4l0.6,3l-0.6,1.8h-5.1v-1.5
			l-0.3-0.2c-0.3,0.3-0.6,0.5-1.1,0.8c-0.5,0.3-1,0.6-1.7,0.8C2349.9,203,2349.2,203.1,2348.5,203.1z"/>
		<path d="M2367.4,203.1c-1.4,0-2.5-0.4-3.3-1.2c-0.8-0.8-1.2-1.8-1.2-3v-6.5h-2.2v-2.9l1.9-1.5l2.1-3.7h3.5v4.3h4.2v3.9h-4.2v6.4
			l4.2,0v3.3c-0.9,0.3-1.8,0.5-2.5,0.7C2369.2,203,2368.3,203.1,2367.4,203.1z"/>
		<path d="M2379.1,203.1c-1.2,0-2.1-0.2-2.8-0.7c-0.7-0.5-1.1-1.1-1.3-2c-0.3-0.9-0.4-1.9-0.4-3.1v-8.7h5.4v7.9
			c0,0.7,0.1,1.3,0.4,1.7c0.3,0.4,0.7,0.6,1.3,0.6c0.5,0,1-0.2,1.5-0.7s0.7-1.1,0.7-2v-7.6h5.4v9.4l0.6,3l-0.6,1.8h-5.1v-1.5
			l-0.3-0.2c-0.3,0.3-0.6,0.5-1.1,0.8c-0.5,0.3-1,0.6-1.7,0.8C2380.5,203,2379.8,203.1,2379.1,203.1z"/>
		<path d="M2392.8,202.8v-9.4l-0.6-3l0.6-1.8h4.1l0.6,0.7c0.6-0.3,1.1-0.6,1.6-0.8s1.1-0.2,1.8-0.2c0.4,0,0.8,0,1.2,0.1
			c0.4,0.1,0.7,0.1,0.9,0.2l2,1.7l-2,3.8l-4-1.7l-0.9,0.3v10H2392.8z"/>
		<path d="M2412.8,203.1c-1.5,0-2.9-0.2-4.1-0.7s-2.1-1.2-2.8-2.3s-1-2.5-1-4.4c0-1.3,0.2-2.4,0.7-3.4s1.1-1.7,1.8-2.3
			c0.8-0.6,1.6-1,2.5-1.3c0.9-0.3,1.9-0.4,2.9-0.4c1.7,0,3,0.2,4,0.5c0.9,0.3,1.5,0.6,1.8,0.8l1.5,4.8l-0.6,1.9h-9.3
			c0.1,0.7,0.5,1.4,1.1,1.9c0.6,0.5,1.6,0.8,3,0.8c1.1,0,2-0.1,2.8-0.4c0.8-0.2,1.4-0.5,1.8-0.6v4c-0.6,0.3-1.5,0.6-2.6,0.8
			S2414,203.1,2412.8,203.1z M2410.2,194.4l4.1-0.6l-0.3-1.3c-0.1-0.1-0.3-0.1-0.6-0.2c-0.3,0-0.5-0.1-0.7-0.1c-0.6,0-1,0.1-1.4,0.4
			s-0.6,0.5-0.8,0.9S2410.2,194.1,2410.2,194.4z"/>
	</g>
</g>
</svg>
